<svg width="20" height="20" viewBox="0 0 20 20" fill="none" xmlns="http://www.w3.org/2000/svg">
<path d="M9.16663 12.5H10.8333V14.1667H9.16663V12.5ZM9.16663 5.83335H10.8333V10.8334H9.16663V5.83335ZM9.99996 1.66669C5.39163 1.66669 1.66663 5.41669 1.66663 10C1.66663 12.2102 2.5446 14.3298 4.1074 15.8926C4.88122 16.6664 5.79988 17.2802 6.81093 17.699C7.82198 18.1178 8.90561 18.3334 9.99996 18.3334C12.2101 18.3334 14.3297 17.4554 15.8925 15.8926C17.4553 14.3298 18.3333 12.2102 18.3333 10C18.3333 8.90567 18.1177 7.82204 17.699 6.81099C17.2802 5.79994 16.6663 4.88129 15.8925 4.10746C15.1187 3.33364 14.2 2.71981 13.189 2.30102C12.1779 1.88224 11.0943 1.66669 9.99996 1.66669ZM9.99996 16.6667C8.23185 16.6667 6.53616 15.9643 5.28591 14.7141C4.03567 13.4638 3.33329 11.7681 3.33329 10C3.33329 8.23191 4.03567 6.53622 5.28591 5.28598C6.53616 4.03573 8.23185 3.33335 9.99996 3.33335C11.7681 3.33335 13.4638 4.03573 14.714 5.28598C15.9642 6.53622 16.6666 8.23191 16.6666 10C16.6666 11.7681 15.9642 13.4638 14.714 14.7141C13.4638 15.9643 11.7681 16.6667 9.99996 16.6667Z" fill="#FF304F"/>
</svg>
