<svg width="288" height="144" viewBox="0 0 288 144" fill="none" xmlns="http://www.w3.org/2000/svg">
<g clip-path="url(#clip0)">
<path fill-rule="evenodd" clip-rule="evenodd" d="M282 2L282 14L270 8L282 2ZM246 20L246 32L234 26L246 20Z" fill="#EBECFE"/>
</g>
<g clip-path="url(#clip1)">
<path fill-rule="evenodd" clip-rule="evenodd" d="M282 38L282 50L270 44L282 38ZM246 56L246 68L234 62L246 56Z" fill="#EBECFE"/>
</g>
<g clip-path="url(#clip2)">
<path fill-rule="evenodd" clip-rule="evenodd" d="M282 74L282 86L270 80L282 74ZM246 92L246 104L234 98L246 92Z" fill="#EBECFE"/>
</g>
<g clip-path="url(#clip3)">
<path fill-rule="evenodd" clip-rule="evenodd" d="M282 110L282 122L270 116L282 110ZM246 128L246 140L234 134L246 128Z" fill="#EBECFE"/>
</g>
<g clip-path="url(#clip4)">
<path fill-rule="evenodd" clip-rule="evenodd" d="M210 2L210 14L198 8L210 2ZM174 20L174 32L162 26L174 20Z" fill="#EBECFE"/>
</g>
<g clip-path="url(#clip5)">
<path fill-rule="evenodd" clip-rule="evenodd" d="M210 38L210 50L198 44L210 38ZM174 56L174 68L162 62L174 56Z" fill="#EBECFE"/>
</g>
<g clip-path="url(#clip6)">
<path fill-rule="evenodd" clip-rule="evenodd" d="M210 74L210 86L198 80L210 74ZM174 92L174 104L162 98L174 92Z" fill="#EBECFE"/>
</g>
<g clip-path="url(#clip7)">
<path fill-rule="evenodd" clip-rule="evenodd" d="M210 110L210 122L198 116L210 110ZM174 128L174 140L162 134L174 128Z" fill="#EBECFE"/>
</g>
<g clip-path="url(#clip8)">
<path fill-rule="evenodd" clip-rule="evenodd" d="M138 2L138 14L126 8L138 2ZM102 20L102 32L90 26L102 20Z" fill="#EBECFE"/>
</g>
<g clip-path="url(#clip9)">
<path fill-rule="evenodd" clip-rule="evenodd" d="M138 38L138 50L126 44L138 38ZM102 56L102 68L90 62L102 56Z" fill="#EBECFE"/>
</g>
<g clip-path="url(#clip10)">
<path fill-rule="evenodd" clip-rule="evenodd" d="M138 74L138 86L126 80L138 74ZM102 92L102 104L90 98L102 92Z" fill="#EBECFE"/>
</g>
<g clip-path="url(#clip11)">
<path fill-rule="evenodd" clip-rule="evenodd" d="M138 110L138 122L126 116L138 110ZM102 128L102 140L90 134L102 128Z" fill="#EBECFE"/>
</g>
<g clip-path="url(#clip12)">
<path fill-rule="evenodd" clip-rule="evenodd" d="M66 1.99998L66 14L54 7.99998L66 1.99998ZM30 20L30 32L18 26L30 20Z" fill="#EBECFE"/>
</g>
<g clip-path="url(#clip13)">
<path fill-rule="evenodd" clip-rule="evenodd" d="M66 38L66 50L54 44L66 38ZM30 56L30 68L18 62L30 56Z" fill="#EBECFE"/>
</g>
<g clip-path="url(#clip14)">
<path fill-rule="evenodd" clip-rule="evenodd" d="M66 74L66 86L54 80L66 74ZM30 92L30 104L18 98L30 92Z" fill="#EBECFE"/>
</g>
<g clip-path="url(#clip15)">
<path fill-rule="evenodd" clip-rule="evenodd" d="M66 110L66 122L54 116L66 110ZM30 128L30 140L18 134L30 128Z" fill="#EBECFE"/>
</g>
<defs>
<clipPath id="clip0">
<rect width="36" height="72" fill="white" transform="translate(288) rotate(90)"/>
</clipPath>
<clipPath id="clip1">
<rect width="36" height="72" fill="white" transform="translate(288 36) rotate(90)"/>
</clipPath>
<clipPath id="clip2">
<rect width="36" height="72" fill="white" transform="translate(288 72) rotate(90)"/>
</clipPath>
<clipPath id="clip3">
<rect width="36" height="72" fill="white" transform="translate(288 108) rotate(90)"/>
</clipPath>
<clipPath id="clip4">
<rect width="36" height="72" fill="white" transform="translate(216) rotate(90)"/>
</clipPath>
<clipPath id="clip5">
<rect width="36" height="72" fill="white" transform="translate(216 36) rotate(90)"/>
</clipPath>
<clipPath id="clip6">
<rect width="36" height="72" fill="white" transform="translate(216 72) rotate(90)"/>
</clipPath>
<clipPath id="clip7">
<rect width="36" height="72" fill="white" transform="translate(216 108) rotate(90)"/>
</clipPath>
<clipPath id="clip8">
<rect width="36" height="72" fill="white" transform="translate(144) rotate(90)"/>
</clipPath>
<clipPath id="clip9">
<rect width="36" height="72" fill="white" transform="translate(144 36) rotate(90)"/>
</clipPath>
<clipPath id="clip10">
<rect width="36" height="72" fill="white" transform="translate(144 72) rotate(90)"/>
</clipPath>
<clipPath id="clip11">
<rect width="36" height="72" fill="white" transform="translate(144 108) rotate(90)"/>
</clipPath>
<clipPath id="clip12">
<rect width="36" height="72" fill="white" transform="translate(72) rotate(90)"/>
</clipPath>
<clipPath id="clip13">
<rect width="36" height="72" fill="white" transform="translate(72 36) rotate(90)"/>
</clipPath>
<clipPath id="clip14">
<rect width="36" height="72" fill="white" transform="translate(72 72) rotate(90)"/>
</clipPath>
<clipPath id="clip15">
<rect width="36" height="72" fill="white" transform="translate(72 108) rotate(90)"/>
</clipPath>
</defs>
</svg>
