<svg width="257" height="144" viewBox="0 0 257 144" fill="none" xmlns="http://www.w3.org/2000/svg">
<path fill-rule="evenodd" clip-rule="evenodd" d="M12 6L18 9L12 12L9 18L6 12L0 9L6 6L9 0L12 6Z" fill="#FFFAEF"/>
<g clip-path="url(#clip0)">
<path fill-rule="evenodd" clip-rule="evenodd" d="M49.5 6L55.5 9L49.5 12L46.5 18L43.5 12L37.5 9L43.5 6L46.5 0L49.5 6Z" fill="#FFFAEF"/>
</g>
<g clip-path="url(#clip1)">
<path fill-rule="evenodd" clip-rule="evenodd" d="M85.5 6L91.5 9L85.5 12L82.5 18L79.5 12L73.5 9L79.5 6L82.5 0L85.5 6Z" fill="#FFFAEF"/>
</g>
<path fill-rule="evenodd" clip-rule="evenodd" d="M12 42L18 45L12 48L9 54L6 48L0 45L6 42L9 36L12 42Z" fill="#FFFAEF"/>
<g clip-path="url(#clip2)">
<path fill-rule="evenodd" clip-rule="evenodd" d="M49.5 42L55.5 45L49.5 48L46.5 54L43.5 48L37.5 45L43.5 42L46.5 36L49.5 42Z" fill="#FFFAEF"/>
</g>
<g clip-path="url(#clip3)">
<path fill-rule="evenodd" clip-rule="evenodd" d="M85.5 42L91.5 45L85.5 48L82.5 54L79.5 48L73.5 45L79.5 42L82.5 36L85.5 42Z" fill="#FFFAEF"/>
</g>
<path fill-rule="evenodd" clip-rule="evenodd" d="M12 6L18 9L12 12L9 18L6 12L0 9L6 6L9 0L12 6Z" fill="#FFFAEF"/>
<g clip-path="url(#clip4)">
<path fill-rule="evenodd" clip-rule="evenodd" d="M49.5 6L55.5 9L49.5 12L46.5 18L43.5 12L37.5 9L43.5 6L46.5 0L49.5 6Z" fill="#FFFAEF"/>
</g>
<g clip-path="url(#clip5)">
<path fill-rule="evenodd" clip-rule="evenodd" d="M85.5 6L91.5 9L85.5 12L82.5 18L79.5 12L73.5 9L79.5 6L82.5 0L85.5 6Z" fill="#FFFAEF"/>
</g>
<path fill-rule="evenodd" clip-rule="evenodd" d="M12 42L18 45L12 48L9 54L6 48L0 45L6 42L9 36L12 42Z" fill="#FFFAEF"/>
<g clip-path="url(#clip6)">
<path fill-rule="evenodd" clip-rule="evenodd" d="M49.5 42L55.5 45L49.5 48L46.5 54L43.5 48L37.5 45L43.5 42L46.5 36L49.5 42Z" fill="#FFFAEF"/>
</g>
<g clip-path="url(#clip7)">
<path fill-rule="evenodd" clip-rule="evenodd" d="M85.5 42L91.5 45L85.5 48L82.5 54L79.5 48L73.5 45L79.5 42L82.5 36L85.5 42Z" fill="#FFFAEF"/>
</g>
<path fill-rule="evenodd" clip-rule="evenodd" d="M12 78L18 81L12 84L9 90L6 84L0 81L6 78L9 72L12 78Z" fill="#FFFAEF"/>
<g clip-path="url(#clip8)">
<path fill-rule="evenodd" clip-rule="evenodd" d="M49.5 78L55.5 81L49.5 84L46.5 90L43.5 84L37.5 81L43.5 78L46.5 72L49.5 78Z" fill="#FFFAEF"/>
</g>
<g clip-path="url(#clip9)">
<path fill-rule="evenodd" clip-rule="evenodd" d="M85.5 78L91.5 81L85.5 84L82.5 90L79.5 84L73.5 81L79.5 78L82.5 72L85.5 78Z" fill="#FFFAEF"/>
</g>
<path fill-rule="evenodd" clip-rule="evenodd" d="M12 114L18 117L12 120L9 126L6 120L0 117L6 114L9 108L12 114Z" fill="#FFFAEF"/>
<g clip-path="url(#clip10)">
<path fill-rule="evenodd" clip-rule="evenodd" d="M49.5 114L55.5 117L49.5 120L46.5 126L43.5 120L37.5 117L43.5 114L46.5 108L49.5 114Z" fill="#FFFAEF"/>
</g>
<g clip-path="url(#clip11)">
<path fill-rule="evenodd" clip-rule="evenodd" d="M85.5 114L91.5 117L85.5 120L82.5 126L79.5 120L73.5 117L79.5 114L82.5 108L85.5 114Z" fill="#FFFAEF"/>
</g>
<g clip-path="url(#clip12)">
<path fill-rule="evenodd" clip-rule="evenodd" d="M121.5 6L127.5 9L121.5 12L118.5 18L115.5 12L109.5 9L115.5 6L118.5 0L121.5 6Z" fill="#FFFAEF"/>
</g>
<path fill-rule="evenodd" clip-rule="evenodd" d="M159 6L165 9L159 12L156 18L153 12L147 9L153 6L156 0L159 6Z" fill="#FFFAEF"/>
<path fill-rule="evenodd" clip-rule="evenodd" d="M195 6L201 9L195 12L192 18L189 12L183 9L189 6L192 0L195 6Z" fill="#FFFAEF"/>
<g clip-path="url(#clip13)">
<path fill-rule="evenodd" clip-rule="evenodd" d="M121.5 42L127.5 45L121.5 48L118.5 54L115.5 48L109.5 45L115.5 42L118.5 36L121.5 42Z" fill="#FFFAEF"/>
</g>
<path fill-rule="evenodd" clip-rule="evenodd" d="M159 42L165 45L159 48L156 54L153 48L147 45L153 42L156 36L159 42Z" fill="#FFFAEF"/>
<path fill-rule="evenodd" clip-rule="evenodd" d="M195 42L201 45L195 48L192 54L189 48L183 45L189 42L192 36L195 42Z" fill="#FFFAEF"/>
<g clip-path="url(#clip14)">
<path fill-rule="evenodd" clip-rule="evenodd" d="M121.5 6L127.5 9L121.5 12L118.5 18L115.5 12L109.5 9L115.5 6L118.5 0L121.5 6Z" fill="#FFFAEF"/>
</g>
<path fill-rule="evenodd" clip-rule="evenodd" d="M159 6L165 9L159 12L156 18L153 12L147 9L153 6L156 0L159 6Z" fill="#FFFAEF"/>
<path fill-rule="evenodd" clip-rule="evenodd" d="M195 6L201 9L195 12L192 18L189 12L183 9L189 6L192 0L195 6Z" fill="#FFFAEF"/>
<g clip-path="url(#clip15)">
<path fill-rule="evenodd" clip-rule="evenodd" d="M121.5 42L127.5 45L121.5 48L118.5 54L115.5 48L109.5 45L115.5 42L118.5 36L121.5 42Z" fill="#FFFAEF"/>
</g>
<path fill-rule="evenodd" clip-rule="evenodd" d="M159 42L165 45L159 48L156 54L153 48L147 45L153 42L156 36L159 42Z" fill="#FFFAEF"/>
<path fill-rule="evenodd" clip-rule="evenodd" d="M195 42L201 45L195 48L192 54L189 48L183 45L189 42L192 36L195 42Z" fill="#FFFAEF"/>
<g clip-path="url(#clip16)">
<path fill-rule="evenodd" clip-rule="evenodd" d="M121.5 78L127.5 81L121.5 84L118.5 90L115.5 84L109.5 81L115.5 78L118.5 72L121.5 78Z" fill="#FFFAEF"/>
</g>
<path fill-rule="evenodd" clip-rule="evenodd" d="M159 78L165 81L159 84L156 90L153 84L147 81L153 78L156 72L159 78Z" fill="#FFFAEF"/>
<path fill-rule="evenodd" clip-rule="evenodd" d="M195 78L201 81L195 84L192 90L189 84L183 81L189 78L192 72L195 78Z" fill="#FFFAEF"/>
<g clip-path="url(#clip17)">
<path fill-rule="evenodd" clip-rule="evenodd" d="M121.5 114L127.5 117L121.5 120L118.5 126L115.5 120L109.5 117L115.5 114L118.5 108L121.5 114Z" fill="#FFFAEF"/>
</g>
<path fill-rule="evenodd" clip-rule="evenodd" d="M159 114L165 117L159 120L156 126L153 120L147 117L153 114L156 108L159 114Z" fill="#FFFAEF"/>
<path fill-rule="evenodd" clip-rule="evenodd" d="M195 114L201 117L195 120L192 126L189 120L183 117L189 114L192 108L195 114Z" fill="#FFFAEF"/>
<g clip-path="url(#clip18)">
<path fill-rule="evenodd" clip-rule="evenodd" d="M232.5 6L238.5 9L232.5 12L229.5 18L226.5 12L220.5 9L226.5 6L229.5 0L232.5 6Z" fill="#FFFAEF"/>
</g>
<g clip-path="url(#clip19)">
<path fill-rule="evenodd" clip-rule="evenodd" d="M232.5 42L238.5 45L232.5 48L229.5 54L226.5 48L220.5 45L226.5 42L229.5 36L232.5 42Z" fill="#FFFAEF"/>
</g>
<g clip-path="url(#clip20)">
<path fill-rule="evenodd" clip-rule="evenodd" d="M232.5 6L238.5 9L232.5 12L229.5 18L226.5 12L220.5 9L226.5 6L229.5 0L232.5 6Z" fill="#FFFAEF"/>
</g>
<g clip-path="url(#clip21)">
<path fill-rule="evenodd" clip-rule="evenodd" d="M232.5 42L238.5 45L232.5 48L229.5 54L226.5 48L220.5 45L226.5 42L229.5 36L232.5 42Z" fill="#FFFAEF"/>
</g>
<g clip-path="url(#clip22)">
<path fill-rule="evenodd" clip-rule="evenodd" d="M232.5 78L238.5 81L232.5 84L229.5 90L226.5 84L220.5 81L226.5 78L229.5 72L232.5 78Z" fill="#FFFAEF"/>
</g>
<g clip-path="url(#clip23)">
<path fill-rule="evenodd" clip-rule="evenodd" d="M232.5 114L238.5 117L232.5 120L229.5 126L226.5 120L220.5 117L226.5 114L229.5 108L232.5 114Z" fill="#FFFAEF"/>
</g>
<defs>
<clipPath id="clip0">
<rect width="36" height="36" fill="white" transform="translate(37.5)"/>
</clipPath>
<clipPath id="clip1">
<rect width="36" height="36" fill="white" transform="translate(73.5)"/>
</clipPath>
<clipPath id="clip2">
<rect width="36" height="36" fill="white" transform="translate(37.5 36)"/>
</clipPath>
<clipPath id="clip3">
<rect width="36" height="36" fill="white" transform="translate(73.5 36)"/>
</clipPath>
<clipPath id="clip4">
<rect width="36" height="36" fill="white" transform="translate(37.5)"/>
</clipPath>
<clipPath id="clip5">
<rect width="36" height="36" fill="white" transform="translate(73.5)"/>
</clipPath>
<clipPath id="clip6">
<rect width="36" height="36" fill="white" transform="translate(37.5 36)"/>
</clipPath>
<clipPath id="clip7">
<rect width="36" height="36" fill="white" transform="translate(73.5 36)"/>
</clipPath>
<clipPath id="clip8">
<rect width="36" height="36" fill="white" transform="translate(37.5 72)"/>
</clipPath>
<clipPath id="clip9">
<rect width="36" height="36" fill="white" transform="translate(73.5 72)"/>
</clipPath>
<clipPath id="clip10">
<rect width="36" height="36" fill="white" transform="translate(37.5 108)"/>
</clipPath>
<clipPath id="clip11">
<rect width="36" height="36" fill="white" transform="translate(73.5 108)"/>
</clipPath>
<clipPath id="clip12">
<rect width="36" height="36" fill="white" transform="translate(109.5)"/>
</clipPath>
<clipPath id="clip13">
<rect width="36" height="36" fill="white" transform="translate(109.5 36)"/>
</clipPath>
<clipPath id="clip14">
<rect width="36" height="36" fill="white" transform="translate(109.5)"/>
</clipPath>
<clipPath id="clip15">
<rect width="36" height="36" fill="white" transform="translate(109.5 36)"/>
</clipPath>
<clipPath id="clip16">
<rect width="36" height="36" fill="white" transform="translate(109.5 72)"/>
</clipPath>
<clipPath id="clip17">
<rect width="36" height="36" fill="white" transform="translate(109.5 108)"/>
</clipPath>
<clipPath id="clip18">
<rect width="36" height="36" fill="white" transform="translate(220.5)"/>
</clipPath>
<clipPath id="clip19">
<rect width="36" height="36" fill="white" transform="translate(220.5 36)"/>
</clipPath>
<clipPath id="clip20">
<rect width="36" height="36" fill="white" transform="translate(220.5)"/>
</clipPath>
<clipPath id="clip21">
<rect width="36" height="36" fill="white" transform="translate(220.5 36)"/>
</clipPath>
<clipPath id="clip22">
<rect width="36" height="36" fill="white" transform="translate(220.5 72)"/>
</clipPath>
<clipPath id="clip23">
<rect width="36" height="36" fill="white" transform="translate(220.5 108)"/>
</clipPath>
</defs>
</svg>
