<svg width="1920" height="1200" viewBox="0 0 1920 1200" fill="none" xmlns="http://www.w3.org/2000/svg">
<g clip-path="url(#clip0)">
<path d="M1920 0H0V1200H1920V0Z" fill="white"/>
<path d="M120 0H0V120H120V0Z" fill="white"/>
<path d="M60 0H0V60H60V0Z" fill="#FFD779"/>
<path d="M0 0H60L0 60V0Z" fill="#FFFEFB"/>
<path d="M120 0H60V60H120V0Z" fill="#ECEDFE"/>
<path d="M60 0H120V60L60 0Z" fill="#FFFBF1"/>
<path d="M60 60H0V120H60V60Z" fill="#FFE4A5"/>
<path d="M60 60V120H0L60 60Z" fill="#EAEBFE"/>
<path d="M120 60H60V120H120V60Z" fill="#EAECFE"/>
<path d="M60 60L120 120H60V60Z" fill="#5A64F8"/>
<path d="M240 0H120V120H240V0Z" fill="white"/>
<path d="M180 0H120V60H180V0Z" fill="#B2B7FC"/>
<path d="M120 60C120 44.087 126.321 28.8258 137.574 17.5736C148.826 6.32141 164.087 0 180 0V60" fill="#FFE19A"/>
<path d="M240 0H180V60H240V0Z" fill="#949BFB"/>
<path d="M180 0C195.913 0 211.174 6.32141 222.426 17.5736C233.679 28.8258 240 44.087 240 60H180" fill="#FFF2D4"/>
<path d="M180 60H120V120H180V60Z" fill="#FFE8B2"/>
<path d="M120 60C120 75.913 126.321 91.1742 137.574 102.426C148.826 113.679 164.087 120 180 120V60" fill="#E9EAFE"/>
<path d="M240 60H180V120H240V60Z" fill="#FFFCF4"/>
<path d="M180 120C195.913 120 211.174 113.679 222.426 102.426C233.679 91.1742 240 75.913 240 60H180" fill="#FFD87F"/>
<path d="M360 0H240V120H360V0Z" fill="white"/>
<path d="M300 0H240V60H300V0Z" fill="#FFDB87"/>
<path d="M240 60C240 44.087 246.321 28.8258 257.574 17.5736C268.826 6.32141 284.087 0 300 0V60" fill="#FFDA85"/>
<path d="M360 0H300V60H360V0Z" fill="#FFE29F"/>
<path d="M300 0C315.913 0 331.174 6.32141 342.426 17.5736C353.679 28.8258 360 44.087 360 60H300" fill="#DDDFFE"/>
<path d="M300 60H240V120H300V60Z" fill="#ECEEFE"/>
<path d="M240 60C240 75.913 246.321 91.1742 257.574 102.426C268.826 113.679 284.087 120 300 120V60" fill="#ACB1FC"/>
<path d="M360 60H300V120H360V60Z" fill="#B6BBFC"/>
<path d="M300 120C315.913 120 331.174 113.679 342.426 102.426C353.679 91.1742 360 75.913 360 60H300" fill="#FFE7AF"/>
<path d="M480 0H360V120H480V0Z" fill="white"/>
<path d="M420 0H360V60H420V0Z" fill="#5C66F8"/>
<path d="M360 0H420L360 60V0Z" fill="#C0C4FC"/>
<path d="M480 0H420V60H480V0Z" fill="#FFCF5F"/>
<path d="M420 0H480V60L420 0Z" fill="#5A65F8"/>
<path d="M420 60H360V120H420V60Z" fill="#8991FA"/>
<path d="M360 60L420 120H360V60Z" fill="#FFD87D"/>
<path d="M480 60H420V120H480V60Z" fill="#FFDB86"/>
<path d="M480 60V120H420L480 60Z" fill="#BCC1FC"/>
<path d="M600 0H480V120H600V0Z" fill="#F6F6FF"/>
<path d="M600 0V120H480L600 0Z" fill="#757EF9"/>
<path d="M720 0H600V120H720V0Z" fill="white"/>
<path d="M660 0H600V60H660V0Z" fill="#FFE097"/>
<path d="M600 0C615.913 0 631.174 6.32141 642.426 17.5736C653.679 28.8258 660 44.087 660 60H600" fill="#FFECC1"/>
<path d="M720 0H660V60H720V0Z" fill="#8890FA"/>
<path d="M660 60C660 44.087 666.321 28.8258 677.574 17.5736C688.826 6.32141 704.087 0 720 0V60" fill="#FFE6AD"/>
<path d="M660 60H600V120H660V60Z" fill="#FFE8B2"/>
<path d="M600 120C615.913 120 631.174 113.679 642.426 102.426C653.679 91.1742 660 75.913 660 60H600" fill="#FFE8B4"/>
<path d="M720 60H660V120H720V60Z" fill="#FFFBF1"/>
<path d="M660 60C660 75.913 666.321 91.1742 677.574 102.426C688.826 113.679 704.087 120 720 120V60" fill="#FFECC0"/>
<path d="M840 0H720V120H840V0Z" fill="white"/>
<path d="M780 0H720V60H780V0Z" fill="#6B75F9"/>
<path d="M720 0C735.913 0 751.174 6.32141 762.426 17.5736C773.679 28.8258 780 44.087 780 60H720" fill="#757EF9"/>
<path d="M840 0H780V60H840V0Z" fill="#FFE7AF"/>
<path d="M780 60C780 44.087 786.321 28.8258 797.574 17.5736C808.826 6.32141 824.087 0 840 0V60" fill="#FFD167"/>
<path d="M780 60H720V120H780V60Z" fill="#727BF9"/>
<path d="M720 120C735.913 120 751.174 113.679 762.426 102.426C773.679 91.1742 780 75.913 780 60H720" fill="#FFFFFE"/>
<path d="M840 60H780V120H840V60Z" fill="#FFFBF2"/>
<path d="M780 60C780 75.913 786.321 91.1742 797.574 102.426C808.826 113.679 824.087 120 840 120V60" fill="#FFDB88"/>
<path d="M960 0H840V120H960V0Z" fill="white"/>
<path d="M900 0H840V60H900V0Z" fill="#FFE7AE"/>
<path d="M840 0H900L840 60V0Z" fill="#FFDC8C"/>
<path d="M960 0H900V60H960V0Z" fill="#BFC3FC"/>
<path d="M900 0H960V60L900 0Z" fill="#FFFEFC"/>
<path d="M900 60H840V120H900V60Z" fill="#FFE099"/>
<path d="M840 60L900 120H840V60Z" fill="#FFD470"/>
<path d="M960 60H900V120H960V60Z" fill="#BDC2FC"/>
<path d="M960 60V120H900L960 60Z" fill="#939AFB"/>
<path d="M1080 0H960V120H1080V0Z" fill="white"/>
<path d="M1020 0H960V60H1020V0Z" fill="#FFE29E"/>
<path d="M960 60C960 44.087 966.321 28.8258 977.574 17.5736C988.826 6.32141 1004.09 0 1020 0V15C1008.07 15 996.619 19.7411 988.18 28.1802C979.741 36.6193 975 48.0653 975 60" fill="#B0B5FC"/>
<path d="M1080 0H1020V60H1080V0Z" fill="#848CFA"/>
<path d="M1020 0C1035.91 0 1051.17 6.32141 1062.43 17.5736C1073.68 28.8258 1080 44.087 1080 60H1065C1065 48.0653 1060.26 36.6193 1051.82 28.1802C1043.38 19.7411 1031.93 15 1020 15" fill="#FFEDC4"/>
<path d="M1020 60H960V120H1020V60Z" fill="#838BFA"/>
<path d="M960 60C960 75.913 966.321 91.1742 977.574 102.426C988.826 113.679 1004.09 120 1020 120V105C1008.07 105 996.619 100.259 988.18 91.8198C979.741 83.3807 975 71.9347 975 60" fill="#9DA3FB"/>
<path d="M1080 60H1020V120H1080V60Z" fill="#9EA4FB"/>
<path d="M1020 120C1035.91 120 1051.17 113.679 1062.43 102.426C1073.68 91.1742 1080 75.913 1080 60H1065C1065 71.9347 1060.26 83.3807 1051.82 91.8198C1043.38 100.259 1031.93 105 1020 105" fill="#FFF5DE"/>
<path d="M1200 0H1080V120H1200V0Z" fill="#8E95FA"/>
<path d="M1080 120C1080 88.174 1092.64 57.6516 1115.15 35.1472C1137.65 12.6428 1168.17 0 1200 0V120" fill="#FFF6E0"/>
<path d="M1320 0H1200V120H1320V0Z" fill="#FFCE5C"/>
<path d="M1320 0V120H1200L1320 0Z" fill="#D0D3FD"/>
<path d="M1440 0H1320V120H1440V0Z" fill="white"/>
<path d="M1380 0H1320V60H1380V0Z" fill="#FFD36E"/>
<path d="M1350 60C1366.57 60 1380 46.5685 1380 30C1380 13.4315 1366.57 0 1350 0C1333.43 0 1320 13.4315 1320 30C1320 46.5685 1333.43 60 1350 60Z" fill="#6A73F9"/>
<path d="M1440 0H1380V60H1440V0Z" fill="#FFE097"/>
<path d="M1440 0H1380V60H1440V0Z" fill="#6670F9"/>
<path d="M1380 60H1320V120H1380V60Z" fill="#656FF9"/>
<path d="M1350 120C1366.57 120 1380 106.569 1380 90C1380 73.4315 1366.57 60 1350 60C1333.43 60 1320 73.4315 1320 90C1320 106.569 1333.43 120 1350 120Z" fill="#FFD36C"/>
<path d="M1440 60H1380V120H1440V60Z" fill="#D5D8FD"/>
<path d="M1440 60H1380V120H1440V60Z" fill="#AEB3FC"/>
<path d="M1560 0H1440V120H1560V0Z" fill="white"/>
<path d="M1500 0H1440V60H1500V0Z" fill="#C6CAFD"/>
<path d="M1440 60C1440 44.087 1446.32 28.8258 1457.57 17.5736C1468.83 6.32141 1484.09 0 1500 0V60" fill="#FFCE5B"/>
<path d="M1560 0H1500V60H1560V0Z" fill="#FFFCF5"/>
<path d="M1500 0C1515.91 0 1531.17 6.32141 1542.43 17.5736C1553.68 28.8258 1560 44.087 1560 60H1500" fill="#FFE29E"/>
<path d="M1500 60H1440V120H1500V60Z" fill="#969DFB"/>
<path d="M1440 60C1440 75.913 1446.32 91.1742 1457.57 102.426C1468.83 113.679 1484.09 120 1500 120V60" fill="#FFFEFB"/>
<path d="M1560 60H1500V120H1560V60Z" fill="#8A92FA"/>
<path d="M1500 120C1515.91 120 1531.17 113.679 1542.43 102.426C1553.68 91.1742 1560 75.913 1560 60H1500" fill="#FFDC8B"/>
<path d="M1680 0H1560V120H1680V0Z" fill="white"/>
<path d="M1620 0H1560V60H1620V0Z" fill="#FFE9B6"/>
<path d="M1560 0C1567.88 0 1575.68 1.55195 1582.96 4.56723C1590.24 7.58251 1596.85 12.0021 1602.43 17.5736C1608 23.1451 1612.42 29.7595 1615.43 37.039C1618.45 44.3185 1620 52.1207 1620 60H1560" fill="#F6F7FF"/>
<path d="M1680 0H1620V60H1680V0Z" fill="#747DF9"/>
<path d="M1620 60C1620 52.1207 1621.55 44.3185 1624.57 37.039C1627.58 29.7595 1632 23.1451 1637.57 17.5736C1643.15 12.0021 1649.76 7.58251 1657.04 4.56723C1664.32 1.55195 1672.12 0 1680 0V60" fill="#FFEBBC"/>
<path d="M1620 60H1560V120H1620V60Z" fill="#CCCFFD"/>
<path d="M1560 120C1567.88 120 1575.68 118.448 1582.96 115.433C1590.24 112.417 1596.85 107.998 1602.43 102.426C1608 96.8549 1612.42 90.2405 1615.43 82.961C1618.45 75.6815 1620 67.8793 1620 60H1560" fill="#C0C4FC"/>
<path d="M1680 60H1620V120H1680V60Z" fill="#C7CBFD"/>
<path d="M1620 60C1620 67.8793 1621.55 75.6815 1624.57 82.961C1627.58 90.2405 1632 96.8549 1637.57 102.426C1643.15 107.998 1649.76 112.417 1657.04 115.433C1664.32 118.448 1672.12 120 1680 120V60" fill="#FFF3D6"/>
<path d="M1800 0H1680V120H1800V0Z" fill="#FFD981"/>
<path d="M1800 0H1680V120H1800V0Z" fill="#FFF7E5"/>
<path d="M1920 0H1800V120H1920V0Z" fill="#FFF1D0"/>
<path d="M1800 0H1920V120L1800 0Z" fill="#5D68F8"/>
<path d="M120 120H0V240H120V120Z" fill="white"/>
<path d="M60 120H0V180H60V120Z" fill="#F3F4FF"/>
<path d="M0 120C0 135.913 6.32141 151.174 17.5736 162.426C28.8258 173.679 44.087 180 60 180V120" fill="#FFF1D0"/>
<path d="M120 120H60V180H120V120Z" fill="#FFE099"/>
<path d="M60 180C75.913 180 91.1742 173.679 102.426 162.426C113.679 151.174 120 135.913 120 120H60" fill="#838BFA"/>
<path d="M60 180H0V240H60V180Z" fill="#9CA2FB"/>
<path d="M0 240C0 224.087 6.32141 208.826 17.5736 197.574C28.8258 186.321 44.087 180 60 180V240" fill="#5762F8"/>
<path d="M120 180H60V240H120V180Z" fill="#FFE19A"/>
<path d="M60 180C75.913 180 91.1742 186.321 102.426 197.574C113.679 208.826 120 224.087 120 240H60" fill="#FFCB52"/>
<path d="M240 120H120V240H240V120Z" fill="#C4C8FD"/>
<path d="M120 240C151.826 240 182.348 227.357 204.853 204.853C227.357 182.348 240 151.826 240 120H120" fill="#FFFCF4"/>
<path d="M360 120H240V240H360V120Z" fill="#FFCC55"/>
<path d="M240 120H360L240 240V120Z" fill="#636DF9"/>
<path d="M480 120H360V240H480V120Z" fill="white"/>
<path d="M420 120H360V180H420V120Z" fill="#F2F2FE"/>
<path d="M360 180C375.913 180 391.174 173.679 402.426 162.426C413.679 151.174 420 135.913 420 120H360" fill="#FFFFFE"/>
<path d="M480 120H420V180H480V120Z" fill="#B9BEFC"/>
<path d="M420 120C420 135.913 426.321 151.174 437.574 162.426C448.826 173.679 464.087 180 480 180V120" fill="#DBDEFE"/>
<path d="M420 180H360V240H420V180Z" fill="#E2E4FE"/>
<path d="M360 180C375.913 180 391.174 186.321 402.426 197.574C413.679 208.826 420 224.087 420 240H360" fill="#CED2FD"/>
<path d="M480 180H420V240H480V180Z" fill="#A5ABFB"/>
<path d="M420 240C420 224.087 426.321 208.826 437.574 197.574C448.826 186.321 464.087 180 480 180V240" fill="#FFFAEF"/>
<path d="M600 120H480V240H600V120Z" fill="#727BF9"/>
<path d="M600 120V240H480L600 120Z" fill="#8C94FA"/>
<path d="M720 120H600V240H720V120Z" fill="white"/>
<path d="M660 120H600V180H660V120Z" fill="#FFCE5B"/>
<path d="M600 120C600 135.913 606.321 151.174 617.574 162.426C628.826 173.679 644.087 180 660 180V120" fill="#FFF0CD"/>
<path d="M720 120H660V180H720V120Z" fill="#FFE4A6"/>
<path d="M660 180C675.913 180 691.174 173.679 702.426 162.426C713.679 151.174 720 135.913 720 120H660" fill="#A0A6FB"/>
<path d="M660 180H600V240H660V180Z" fill="#8B92FA"/>
<path d="M600 240C600 224.087 606.321 208.826 617.574 197.574C628.826 186.321 644.087 180 660 180V240" fill="#F1F1FE"/>
<path d="M720 180H660V240H720V180Z" fill="#838BFA"/>
<path d="M660 180C675.913 180 691.174 186.321 702.426 197.574C713.679 208.826 720 224.087 720 240H660" fill="#EEF0FE"/>
<path d="M840 120H720V240H840V120Z" fill="white"/>
<path d="M780 120H720V180H780V120Z" fill="#FFCE5C"/>
<path d="M720 120C735.913 120 751.174 126.321 762.426 137.574C773.679 148.826 780 164.087 780 180H720" fill="#E9EBFE"/>
<path d="M840 120H780V180H840V120Z" fill="#5661F8"/>
<path d="M780 180C780 164.087 786.321 148.826 797.574 137.574C808.826 126.321 824.087 120 840 120V180" fill="#FFE4A6"/>
<path d="M780 180H720V240H780V180Z" fill="#C0C4FC"/>
<path d="M720 240C735.913 240 751.174 233.679 762.426 222.426C773.679 211.174 780 195.913 780 180H720" fill="#DCDEFE"/>
<path d="M840 180H780V240H840V180Z" fill="#9198FA"/>
<path d="M780 180C780 195.913 786.321 211.174 797.574 222.426C808.826 233.679 824.087 240 840 240V180" fill="#AFB5FC"/>
<path d="M960 120H840V240H960V120Z" fill="#5E69F8"/>
<path d="M840 120L960 240H840V120Z" fill="#F1F2FE"/>
<path d="M1080 120H960V240H1080V120Z" fill="#DFE1FE"/>
<path d="M960 240C960 208.174 972.643 177.652 995.147 155.147C1017.65 132.643 1048.17 120 1080 120V240" fill="#FFF3D8"/>
<path d="M1200 120H1080V240H1200V120Z" fill="#8B93FA"/>
<path d="M1200 120H1080V240H1200V120Z" fill="#9DA3FB"/>
<path d="M1320 120H1200V240H1320V120Z" fill="white"/>
<path d="M1260 120H1200V180H1260V120Z" fill="#FFFEFB"/>
<path d="M1200 180C1200 164.087 1206.32 148.826 1217.57 137.574C1228.83 126.321 1244.09 120 1260 120V180" fill="#FFF5DE"/>
<path d="M1320 120H1260V180H1320V120Z" fill="#CACEFD"/>
<path d="M1260 120C1275.91 120 1291.17 126.321 1302.43 137.574C1313.68 148.826 1320 164.087 1320 180H1260" fill="#FFCB53"/>
<path d="M1260 180H1200V240H1260V180Z" fill="#FFDE90"/>
<path d="M1200 180C1200 195.913 1206.32 211.174 1217.57 222.426C1228.83 233.679 1244.09 240 1260 240V180" fill="#777FF9"/>
<path d="M1320 180H1260V240H1320V180Z" fill="#F7F8FF"/>
<path d="M1260 240C1275.91 240 1291.17 233.679 1302.43 222.426C1313.68 211.174 1320 195.913 1320 180H1260" fill="#9AA0FB"/>
<path d="M1440 120H1320V240H1440V120Z" fill="white"/>
<path d="M1380 120H1320V180H1380V120Z" fill="#FFDE92"/>
<path d="M1320 120H1380L1320 180V120Z" fill="#CBCEFD"/>
<path d="M1440 120H1380V180H1440V120Z" fill="#E3E5FE"/>
<path d="M1380 120H1440V180L1380 120Z" fill="#FFD269"/>
<path d="M1380 180H1320V240H1380V180Z" fill="#D2D5FD"/>
<path d="M1320 180L1380 240H1320V180Z" fill="#FFEEC6"/>
<path d="M1440 180H1380V240H1440V180Z" fill="#FFFDF8"/>
<path d="M1440 180V240H1380L1440 180Z" fill="#9CA2FB"/>
<path d="M1560 120H1440V240H1560V120Z" fill="#FFE4A4"/>
<path d="M1440 120C1440 151.826 1452.64 182.348 1475.15 204.853C1497.65 227.357 1528.17 240 1560 240V120" fill="#FFDF96"/>
<path d="M1680 120H1560V240H1680V120Z" fill="white"/>
<path d="M1620 120H1560V180H1620V120Z" fill="#FFEABA"/>
<path d="M1590 180C1606.57 180 1620 166.569 1620 150C1620 133.431 1606.57 120 1590 120C1573.43 120 1560 133.431 1560 150C1560 166.569 1573.43 180 1590 180Z" fill="#FFCB53"/>
<path d="M1680 120H1620V180H1680V120Z" fill="#FFF0CF"/>
<path d="M1680 120H1620V180H1680V120Z" fill="#A3A9FB"/>
<path d="M1620 180H1560V240H1620V180Z" fill="#CCCFFD"/>
<path d="M1590 240C1606.57 240 1620 226.569 1620 210C1620 193.431 1606.57 180 1590 180C1573.43 180 1560 193.431 1560 210C1560 226.569 1573.43 240 1590 240Z" fill="#969CFB"/>
<path d="M1680 180H1620V240H1680V180Z" fill="#FFD779"/>
<path d="M1680 180H1620V240H1680V180Z" fill="#FFDD8F"/>
<path d="M1800 120H1680V240H1800V120Z" fill="#FFD575"/>
<path d="M1800 120H1680V240H1800V120Z" fill="#FFFEFC"/>
<path d="M1920 120H1800V240H1920V120Z" fill="white"/>
<path d="M1860 120H1800V180H1860V120Z" fill="#FFDD8D"/>
<path d="M1800 120H1860L1800 180V120Z" fill="#FFF3D8"/>
<path d="M1920 120H1860V180H1920V120Z" fill="#9DA4FB"/>
<path d="M1860 120H1920V180L1860 120Z" fill="#727BF9"/>
<path d="M1860 180H1800V240H1860V180Z" fill="#747DF9"/>
<path d="M1860 180V240H1800L1860 180Z" fill="#767FF9"/>
<path d="M1920 180H1860V240H1920V180Z" fill="#FFF7E4"/>
<path d="M1860 180L1920 240H1860V180Z" fill="#E2E4FE"/>
<path d="M120 240H0V360H120V240Z" fill="white"/>
<path d="M60 240H0V300H60V240Z" fill="#FFE3A1"/>
<path d="M30 300C46.5685 300 60 286.569 60 270C60 253.431 46.5685 240 30 240C13.4315 240 0 253.431 0 270C0 286.569 13.4315 300 30 300Z" fill="#FFCD58"/>
<path d="M120 240H60V300H120V240Z" fill="#DADCFD"/>
<path d="M120 240H60V300H120V240Z" fill="#FFCA50"/>
<path d="M60 300H0V360H60V300Z" fill="#FFD26A"/>
<path d="M30 360C46.5685 360 60 346.569 60 330C60 313.431 46.5685 300 30 300C13.4315 300 0 313.431 0 330C0 346.569 13.4315 360 30 360Z" fill="#6872F9"/>
<path d="M120 300H60V360H120V300Z" fill="#F8F9FF"/>
<path d="M120 300H60V360H120V300Z" fill="#FFDD8F"/>
<path d="M240 240H120V360H240V240Z" fill="#5B66F8"/>
<path d="M240 240H120V360H240V240Z" fill="#939AFB"/>
<path d="M360 240H240V360H360V240Z" fill="#6F79F9"/>
<path d="M360 240H240V360H360V240Z" fill="#FFD779"/>
<path d="M480 240H360V360H480V240Z" fill="#FFD675"/>
<path d="M360 240C391.826 240 422.348 252.643 444.853 275.147C467.357 297.652 480 328.174 480 360L360 240C360 271.826 372.643 302.348 395.147 324.853C417.652 347.357 448.174 360 480 360" fill="#FFFEFA"/>
<path d="M600 240H480V360H600V240Z" fill="#B2B7FC"/>
<path d="M480 240C495.759 240 511.363 243.104 525.922 249.134C540.481 255.165 553.71 264.004 564.853 275.147C575.996 286.29 584.835 299.519 590.866 314.078C596.896 328.637 600 344.241 600 360L480 240C480 271.826 492.643 302.348 515.147 324.853C537.652 347.357 568.174 360 600 360" fill="#737CF9"/>
<path d="M720 240H600V360H720V240Z" fill="#FFCB52"/>
<path d="M600 360C600 328.174 612.643 297.652 635.147 275.147C657.652 252.643 688.174 240 720 240L600 360C631.826 360 662.348 347.357 684.853 324.853C707.357 302.348 720 271.826 720 240" fill="#FFF5DE"/>
<path d="M840 240H720V360H840V240Z" fill="white"/>
<path d="M780 240H720V300H780V240Z" fill="#5F6AF8"/>
<path d="M720 240H780L720 300V240Z" fill="#F5F6FF"/>
<path d="M840 240H780V300H840V240Z" fill="#FFFDFA"/>
<path d="M780 240H840V300L780 240Z" fill="#FFD77C"/>
<path d="M780 300H720V360H780V300Z" fill="#F2F2FE"/>
<path d="M720 300L780 360H720V300Z" fill="#FFF2D3"/>
<path d="M840 300H780V360H840V300Z" fill="#5A65F8"/>
<path d="M840 300V360H780L840 300Z" fill="#FFEBBE"/>
<path d="M960 240H840V360H960V240Z" fill="#FFFEFD"/>
<path d="M960 240H840V360H960V240Z" fill="#FFF9EA"/>
<path d="M1080 240H960V360H1080V240Z" fill="white"/>
<path d="M1020 240H960V300H1020V240Z" fill="#FFD470"/>
<path d="M960 240C960 247.879 961.552 255.681 964.567 262.961C967.583 270.241 972.002 276.855 977.574 282.426C988.826 293.679 1004.09 300 1020 300V240" fill="#FFDA85"/>
<path d="M1080 240H1020V300H1080V240Z" fill="#CDD0FD"/>
<path d="M1020 300C1027.88 300 1035.68 298.448 1042.96 295.433C1050.24 292.417 1056.85 287.998 1062.43 282.426C1068 276.855 1072.42 270.241 1075.43 262.961C1078.45 255.681 1080 247.879 1080 240H1020" fill="#CACEFD"/>
<path d="M1020 300H960V360H1020V300Z" fill="#FFE2A0"/>
<path d="M960 360C960 344.087 966.321 328.826 977.574 317.574C988.826 306.321 1004.09 300 1020 300V360" fill="#FFDE92"/>
<path d="M1080 300H1020V360H1080V300Z" fill="#FFE3A1"/>
<path d="M1020 300C1035.91 300 1051.17 306.321 1062.43 317.574C1073.68 328.826 1080 344.087 1080 360H1020" fill="#B4B9FC"/>
<path d="M1200 240H1080V360H1200V240Z" fill="#FFEEC6"/>
<path d="M1200 240H1080V360H1200V240Z" fill="#6670F9"/>
<path d="M1320 240H1200V360H1320V240Z" fill="white"/>
<path d="M1260 240H1200V300H1260V240Z" fill="#FFDE92"/>
<path d="M1200 240H1260L1200 300V240Z" fill="#B5BAFC"/>
<path d="M1320 240H1260V300H1320V240Z" fill="#7B84FA"/>
<path d="M1320 240V300H1260L1320 240Z" fill="#FFF1D2"/>
<path d="M1260 300H1200V360H1260V300Z" fill="#FFCE5D"/>
<path d="M1200 300H1260V360L1200 300Z" fill="#FFDD8E"/>
<path d="M1320 300H1260V360H1320V300Z" fill="#FFF1CF"/>
<path d="M1260 300L1320 360H1260V300Z" fill="#CFD2FD"/>
<path d="M1440 240H1320V360H1440V240Z" fill="#FFF7E5"/>
<path d="M1320 240C1320 271.826 1332.64 302.348 1355.15 324.853C1377.65 347.357 1408.17 360 1440 360V240" fill="#9CA2FB"/>
<path d="M1560 240H1440V360H1560V240Z" fill="#FFF7E5"/>
<path d="M1440 240H1560L1440 360V240Z" fill="#7A82F9"/>
<path d="M1680 240H1560V360H1680V240Z" fill="#D8DAFD"/>
<path d="M1560 240H1680V360L1560 240Z" fill="#FFD063"/>
<path d="M1800 240H1680V360H1800V240Z" fill="#A8AEFB"/>
<path d="M1680 360C1680 328.174 1692.64 297.652 1715.15 275.147C1737.65 252.643 1768.17 240 1800 240L1680 360C1711.83 360 1742.35 347.357 1764.85 324.853C1787.36 302.348 1800 271.826 1800 240" fill="#6A74F9"/>
<path d="M1920 240H1800V360H1920V240Z" fill="white"/>
<path d="M1860 240H1800V300H1860V240Z" fill="#FFCE5B"/>
<path d="M1800 240H1860L1800 300V240Z" fill="#FFD982"/>
<path d="M1920 240H1860V300H1920V240Z" fill="#E2E4FE"/>
<path d="M1860 240H1920V300L1860 240Z" fill="#FFE5A8"/>
<path d="M1860 300H1800V360H1860V300Z" fill="#F6F7FF"/>
<path d="M1800 300L1860 360H1800V300Z" fill="#5B66F8"/>
<path d="M1920 300H1860V360H1920V300Z" fill="#F1F2FE"/>
<path d="M1920 300V360H1860L1920 300Z" fill="#CCD0FD"/>
<path d="M120 360H0V480H120V360Z" fill="#FFF5DD"/>
<path d="M120 360V480H0L120 360Z" fill="#7780F9"/>
<path d="M240 360H120V480H240V360Z" fill="#B1B6FC"/>
<path d="M120 360H240L120 480V360Z" fill="#FFF1D0"/>
<path d="M360 360H240V480H360V360Z" fill="white"/>
<path d="M300 360H240V420H300V360Z" fill="#E8EAFE"/>
<path d="M240 420C240 404.087 246.321 388.826 257.574 377.574C268.826 366.321 284.087 360 300 360V420" fill="#939AFB"/>
<path d="M360 360H300V420H360V360Z" fill="#FFEFC8"/>
<path d="M300 360C315.913 360 331.174 366.321 342.426 377.574C353.679 388.826 360 404.087 360 420H300" fill="#FFF0CC"/>
<path d="M300 420H240V480H300V420Z" fill="#D7DAFD"/>
<path d="M240 420C240 435.913 246.321 451.174 257.574 462.426C268.826 473.679 284.087 480 300 480V420" fill="#FFE6AB"/>
<path d="M360 420H300V480H360V420Z" fill="#FAFAFF"/>
<path d="M300 480C315.913 480 331.174 473.679 342.426 462.426C353.679 451.174 360 435.913 360 420H300" fill="#FFEBBE"/>
<path d="M480 360H360V480H480V360Z" fill="#FFF3D8"/>
<path d="M360 360H480L360 480V360Z" fill="#959CFB"/>
<path d="M600 360H480V480H600V360Z" fill="#6771F9"/>
<path d="M600 360H480V480H600V360Z" fill="#FFD573"/>
<path d="M720 360H600V480H720V360Z" fill="white"/>
<path d="M660 360H600V420H660V360Z" fill="#999FFB"/>
<path d="M600 360C615.913 360 631.174 366.321 642.426 377.574C653.679 388.826 660 404.087 660 420H600" fill="#FFF9E9"/>
<path d="M720 360H660V420H720V360Z" fill="#D3D6FD"/>
<path d="M660 420C660 404.087 666.321 388.826 677.574 377.574C688.826 366.321 704.087 360 720 360V420" fill="#9AA1FB"/>
<path d="M660 420H600V480H660V420Z" fill="#D1D4FD"/>
<path d="M600 480C615.913 480 631.174 473.679 642.426 462.426C653.679 451.174 660 435.913 660 420H600" fill="#949BFB"/>
<path d="M720 420H660V480H720V420Z" fill="#F7F8FF"/>
<path d="M660 420C660 435.913 666.321 451.174 677.574 462.426C688.826 473.679 704.087 480 720 480V420" fill="#FFF4DC"/>
<path d="M840 360H720V480H840V360Z" fill="white"/>
<path d="M780 360H720V420H780V360Z" fill="#C7CAFD"/>
<path d="M720 360H780L720 420V360Z" fill="#FFD87F"/>
<path d="M840 360H780V420H840V360Z" fill="#FFF5DE"/>
<path d="M840 360V420H780L840 360Z" fill="#FFD063"/>
<path d="M780 420H720V480H780V420Z" fill="#FFD36C"/>
<path d="M720 420H780V480L720 420Z" fill="#DCDEFE"/>
<path d="M840 420H780V480H840V420Z" fill="#AAAFFB"/>
<path d="M780 420L840 480H780V420Z" fill="#EBECFE"/>
<path d="M960 360H840V480H960V360Z" fill="#FFE5A9"/>
<path d="M960 360H840V480H960V360Z" fill="#FFD574"/>
<path d="M1080 360H960V480H1080V360Z" fill="#5C66F8"/>
<path d="M1080 360V480H960L1080 360Z" fill="#FFD166"/>
<path d="M1200 360H1080V480H1200V360Z" fill="#FFFAED"/>
<path d="M1080 360L1200 480H1080V360Z" fill="#FFF4DC"/>
<path d="M1320 360H1200V480H1320V360Z" fill="white"/>
<path d="M1260 360H1200V420H1260V360Z" fill="#737CF9"/>
<path d="M1200 420C1215.91 420 1231.17 413.679 1242.43 402.426C1253.68 391.174 1260 375.913 1260 360H1200" fill="#FFFAEF"/>
<path d="M1320 360H1260V420H1320V360Z" fill="#8D94FA"/>
<path d="M1260 360C1260 375.913 1266.32 391.174 1277.57 402.426C1288.83 413.679 1304.09 420 1320 420V360" fill="#FFEAB9"/>
<path d="M1260 420H1200V480H1260V420Z" fill="#FFDB88"/>
<path d="M1200 420C1215.91 420 1231.17 426.321 1242.43 437.574C1253.68 448.826 1260 464.087 1260 480H1200" fill="#E3E5FE"/>
<path d="M1320 420H1260V480H1320V420Z" fill="#FFDD8E"/>
<path d="M1260 480C1260 464.087 1266.32 448.826 1277.57 437.574C1288.83 426.321 1304.09 420 1320 420V480" fill="#969DFB"/>
<path d="M1440 360H1320V480H1440V360Z" fill="#EBECFE"/>
<path d="M1320 360H1440V480L1320 360Z" fill="#FFE9B6"/>
<path d="M1560 360H1440V480H1560V360Z" fill="#FFDE92"/>
<path d="M1560 360H1440V480H1560V360Z" fill="#A7ADFB"/>
<path d="M1680 360H1560V480H1680V360Z" fill="#EEEFFE"/>
<path d="M1560 480C1560 448.174 1572.64 417.652 1595.15 395.147C1617.65 372.643 1648.17 360 1680 360L1560 480C1591.83 480 1622.35 467.357 1644.85 444.853C1667.36 422.348 1680 391.826 1680 360" fill="#FFEDC2"/>
<path d="M1800 360H1680V480H1800V360Z" fill="white"/>
<path d="M1740 360H1680V420H1740V360Z" fill="#E5E6FE"/>
<path d="M1680 420C1695.91 420 1711.17 413.679 1722.43 402.426C1733.68 391.174 1740 375.913 1740 360H1680" fill="#6E78F9"/>
<path d="M1800 360H1740V420H1800V360Z" fill="#BCC1FC"/>
<path d="M1740 360C1740 375.913 1746.32 391.174 1757.57 402.426C1768.83 413.679 1784.09 420 1800 420V360" fill="#FFF5DE"/>
<path d="M1740 420H1680V480H1740V420Z" fill="#939AFB"/>
<path d="M1680 420C1695.91 420 1711.17 426.321 1722.43 437.574C1733.68 448.826 1740 464.087 1740 480H1680" fill="#EAECFE"/>
<path d="M1800 420H1740V480H1800V420Z" fill="#FFFAED"/>
<path d="M1740 480C1740 464.087 1746.32 448.826 1757.57 437.574C1768.83 426.321 1784.09 420 1800 420V480" fill="white"/>
<path d="M1920 360H1800V480H1920V360Z" fill="white"/>
<path d="M1860 360H1800V420H1860V360Z" fill="#FFF4DB"/>
<path d="M1800 420C1800 404.087 1806.32 388.826 1817.57 377.574C1828.83 366.321 1844.09 360 1860 360V420" fill="#6D76F9"/>
<path d="M1920 360H1860V420H1920V360Z" fill="#FFF5DC"/>
<path d="M1860 360C1875.91 360 1891.17 366.321 1902.43 377.574C1913.68 388.826 1920 404.087 1920 420H1860" fill="#FFD981"/>
<path d="M1860 420H1800V480H1860V420Z" fill="#6F79F9"/>
<path d="M1800 420C1800 435.913 1806.32 451.174 1817.57 462.426C1828.83 473.679 1844.09 480 1860 480V420" fill="#A1A7FB"/>
<path d="M1920 420H1860V480H1920V420Z" fill="#FFDC8B"/>
<path d="M1860 480C1875.91 480 1891.17 473.679 1902.43 462.426C1913.68 451.174 1920 435.913 1920 420H1860" fill="#FFEDC2"/>
<path d="M120 480H0V600H120V480Z" fill="#FFE096"/>
<path d="M120 480V600H0L120 480Z" fill="#8990FA"/>
<path d="M240 480H120V600H240V480Z" fill="white"/>
<path d="M180 480H120V540H180V480Z" fill="#FFD77A"/>
<path d="M120 540C120 524.087 126.321 508.826 137.574 497.574C148.826 486.321 164.087 480 180 480V495C168.065 495 156.619 499.741 148.18 508.18C139.741 516.619 135 528.065 135 540" fill="#FFD36C"/>
<path d="M240 480H180V540H240V480Z" fill="#FFF3D8"/>
<path d="M180 480C195.913 480 211.174 486.321 222.426 497.574C233.679 508.826 240 524.087 240 540H225C225 528.065 220.259 516.619 211.82 508.18C203.381 499.741 191.935 495 180 495" fill="#E7E9FE"/>
<path d="M180 540H120V600H180V540Z" fill="#FFF2D5"/>
<path d="M120 540C120 555.913 126.321 571.174 137.574 582.426C148.826 593.679 164.087 600 180 600V585C168.065 585 156.619 580.259 148.18 571.82C139.741 563.381 135 551.935 135 540" fill="#F8F9FF"/>
<path d="M240 540H180V600H240V540Z" fill="#FFD062"/>
<path d="M180 600C195.913 600 211.174 593.679 222.426 582.426C233.679 571.174 240 555.913 240 540H225C225 551.935 220.259 563.381 211.82 571.82C203.381 580.259 191.935 585 180 585" fill="#FFE8B3"/>
<path d="M360 480H240V600H360V480Z" fill="#FFFCF4"/>
<path d="M240 480L360 600H240V480Z" fill="#FFFEFD"/>
<path d="M480 480H360V600H480V480Z" fill="#FFE19A"/>
<path d="M360 480H480L360 600V480Z" fill="#FFE7AE"/>
<path d="M600 480H480V600H600V480Z" fill="#EBECFE"/>
<path d="M480 480C495.759 480 511.363 483.104 525.922 489.134C540.481 495.165 553.71 504.004 564.853 515.147C575.996 526.29 584.835 539.519 590.866 554.078C596.896 568.637 600 584.241 600 600L480 480C480 495.759 483.104 511.363 489.134 525.922C495.165 540.481 504.004 553.71 515.147 564.853C537.652 587.357 568.174 600 600 600" fill="#CCCFFD"/>
<path d="M720 480H600V600H720V480Z" fill="#B4B9FC"/>
<path d="M720 480H600V600H720V480Z" fill="#EAEBFE"/>
<path d="M840 480H720V600H840V480Z" fill="white"/>
<path d="M780 480H720V540H780V480Z" fill="#FFD77B"/>
<path d="M750 540C766.569 540 780 526.569 780 510C780 493.431 766.569 480 750 480C733.431 480 720 493.431 720 510C720 526.569 733.431 540 750 540Z" fill="#FFFBF2"/>
<path d="M840 480H780V540H840V480Z" fill="#FFF6E1"/>
<path d="M840 480H780V540H840V480Z" fill="#747DF9"/>
<path d="M780 540H720V600H780V540Z" fill="#FFD87F"/>
<path d="M750 600C766.569 600 780 586.569 780 570C780 553.431 766.569 540 750 540C733.431 540 720 553.431 720 570C720 586.569 733.431 600 750 600Z" fill="#C7CBFD"/>
<path d="M840 540H780V600H840V540Z" fill="#FFCF5F"/>
<path d="M840 540H780V600H840V540Z" fill="#838BFA"/>
<path d="M960 480H840V600H960V480Z" fill="white"/>
<path d="M900 480H840V540H900V480Z" fill="#FFF0CC"/>
<path d="M840 480C855.913 480 871.174 486.321 882.426 497.574C893.679 508.826 900 524.087 900 540H840" fill="#FFD574"/>
<path d="M960 480H900V540H960V480Z" fill="#E6E8FE"/>
<path d="M900 540C900 524.087 906.321 508.826 917.574 497.574C928.826 486.321 944.087 480 960 480V540" fill="#FFDF94"/>
<path d="M900 540H840V600H900V540Z" fill="#FFEDC3"/>
<path d="M840 600C855.913 600 871.174 593.679 882.426 582.426C893.679 571.174 900 555.913 900 540H840" fill="#E4E5FE"/>
<path d="M960 540H900V600H960V540Z" fill="#FFE19B"/>
<path d="M900 540C900 555.913 906.321 571.174 917.574 582.426C928.826 593.679 944.087 600 960 600V540" fill="#FFD678"/>
<path d="M1080 480H960V600H1080V480Z" fill="#AAB0FB"/>
<path d="M960 480C960 495.759 963.104 511.363 969.134 525.922C975.165 540.481 984.004 553.71 995.147 564.853C1017.65 587.357 1048.17 600 1080 600V480" fill="#FFFAF0"/>
<path d="M1200 480H1080V600H1200V480Z" fill="white"/>
<path d="M1140 480H1080V540H1140V480Z" fill="#FFDD8E"/>
<path d="M1080 540C1080 524.087 1086.32 508.826 1097.57 497.574C1108.83 486.321 1124.09 480 1140 480V495C1128.07 495 1116.62 499.741 1108.18 508.18C1099.74 516.619 1095 528.065 1095 540" fill="#B7BBFC"/>
<path d="M1200 480H1140V540H1200V480Z" fill="#BCC1FC"/>
<path d="M1140 480C1155.91 480 1171.17 486.321 1182.43 497.574C1193.68 508.826 1200 524.087 1200 540H1185C1185 528.065 1180.26 516.619 1171.82 508.18C1163.38 499.741 1151.93 495 1140 495" fill="#ECEDFE"/>
<path d="M1140 540H1080V600H1140V540Z" fill="#626CF8"/>
<path d="M1080 540C1080 555.913 1086.32 571.174 1097.57 582.426C1108.83 593.679 1124.09 600 1140 600V585C1128.07 585 1116.62 580.259 1108.18 571.82C1099.74 563.381 1095 551.935 1095 540" fill="#FFDB87"/>
<path d="M1200 540H1140V600H1200V540Z" fill="#FFE7AF"/>
<path d="M1140 600C1155.91 600 1171.17 593.679 1182.43 582.426C1193.68 571.174 1200 555.913 1200 540H1185C1185 551.935 1180.26 563.381 1171.82 571.82C1163.38 580.259 1151.93 585 1140 585" fill="#DCDEFE"/>
<path d="M1320 480H1200V600H1320V480Z" fill="white"/>
<path d="M1260 480H1200V540H1260V480Z" fill="#FFD87E"/>
<path d="M1200 480H1260L1200 540V480Z" fill="#FFDD8D"/>
<path d="M1320 480H1260V540H1320V480Z" fill="#FFEDC3"/>
<path d="M1260 480H1320V540L1260 480Z" fill="#E0E2FE"/>
<path d="M1260 540H1200V600H1260V540Z" fill="#FFE5A8"/>
<path d="M1200 540L1260 600H1200V540Z" fill="#FFF0CD"/>
<path d="M1320 540H1260V600H1320V540Z" fill="#FFF9EC"/>
<path d="M1320 540V600H1260L1320 540Z" fill="#8C93FA"/>
<path d="M1440 480H1320V600H1440V480Z" fill="white"/>
<path d="M1380 480H1320V540H1380V480Z" fill="#FFFBF1"/>
<path d="M1320 540C1320 524.087 1326.32 508.826 1337.57 497.574C1348.83 486.321 1364.09 480 1380 480V495C1368.07 495 1356.62 499.741 1348.18 508.18C1339.74 516.619 1335 528.065 1335 540" fill="#989FFB"/>
<path d="M1440 480H1380V540H1440V480Z" fill="#FFF5DD"/>
<path d="M1380 480C1395.91 480 1411.17 486.321 1422.43 497.574C1433.68 508.826 1440 524.087 1440 540H1425C1425 528.065 1420.26 516.619 1411.82 508.18C1403.38 499.741 1391.93 495 1380 495" fill="#FFCD58"/>
<path d="M1380 540H1320V600H1380V540Z" fill="#FFEBBE"/>
<path d="M1320 540C1320 555.913 1326.32 571.174 1337.57 582.426C1348.83 593.679 1364.09 600 1380 600V585C1368.07 585 1356.62 580.259 1348.18 571.82C1339.74 563.381 1335 551.935 1335 540" fill="#DADCFD"/>
<path d="M1440 540H1380V600H1440V540Z" fill="#FFDE92"/>
<path d="M1380 600C1395.91 600 1411.17 593.679 1422.43 582.426C1433.68 571.174 1440 555.913 1440 540H1425C1425 551.935 1420.26 563.381 1411.82 571.82C1403.38 580.259 1391.93 585 1380 585" fill="#FFF2D3"/>
<path d="M1560 480H1440V600H1560V480Z" fill="white"/>
<path d="M1500 480H1440V540H1500V480Z" fill="#8890FA"/>
<path d="M1440 480H1500L1440 540V480Z" fill="#5C66F8"/>
<path d="M1560 480H1500V540H1560V480Z" fill="#FFE4A7"/>
<path d="M1500 480H1560V540L1500 480Z" fill="#FFD064"/>
<path d="M1500 540H1440V600H1500V540Z" fill="#FDFDFF"/>
<path d="M1500 540V600H1440L1500 540Z" fill="#FFEBBC"/>
<path d="M1560 540H1500V600H1560V540Z" fill="#FFFBF1"/>
<path d="M1500 540L1560 600H1500V540Z" fill="#FFEABA"/>
<path d="M1680 480H1560V600H1680V480Z" fill="white"/>
<path d="M1620 480H1560V540H1620V480Z" fill="#A1A7FB"/>
<path d="M1560 540C1560 532.121 1561.55 524.319 1564.57 517.039C1567.58 509.759 1572 503.145 1577.57 497.574C1583.15 492.002 1589.76 487.583 1597.04 484.567C1604.32 481.552 1612.12 480 1620 480V540" fill="#FFDA84"/>
<path d="M1680 480H1620V540H1680V480Z" fill="#A4AAFB"/>
<path d="M1620 480C1627.88 480 1635.68 481.552 1642.96 484.567C1650.24 487.583 1656.85 492.002 1662.43 497.574C1668 503.145 1672.42 509.759 1675.43 517.039C1678.45 524.319 1680 532.121 1680 540H1620" fill="#EFF0FE"/>
<path d="M1620 540H1560V600H1620V540Z" fill="#878FFA"/>
<path d="M1560 540C1560 547.879 1561.55 555.681 1564.57 562.961C1567.58 570.241 1572 576.855 1577.57 582.426C1583.15 587.998 1589.76 592.417 1597.04 595.433C1604.32 598.448 1612.12 600 1620 600V540" fill="#626DF9"/>
<path d="M1680 540H1620V600H1680V540Z" fill="#FFDD8E"/>
<path d="M1620 600C1627.88 600 1635.68 598.448 1642.96 595.433C1650.24 592.417 1656.85 587.998 1662.43 582.426C1668 576.855 1672.42 570.241 1675.43 562.961C1678.45 555.681 1680 547.879 1680 540H1620" fill="#FFECC1"/>
<path d="M1800 480H1680V600H1800V480Z" fill="#CFD2FD"/>
<path d="M1800 480H1680V600H1800V480Z" fill="#5F69F8"/>
<path d="M1920 480H1800V600H1920V480Z" fill="#FFFAEF"/>
<path d="M1920 480H1800V600H1920V480Z" fill="#FFE6AB"/>
<path d="M120 600H0V720H120V600Z" fill="white"/>
<path d="M60 600H0V660H60V600Z" fill="#C5C9FD"/>
<path d="M0 600H60L0 660V600Z" fill="#D8DAFD"/>
<path d="M120 600H60V660H120V600Z" fill="#FFD36B"/>
<path d="M60 600H120V660L60 600Z" fill="#FFE6AA"/>
<path d="M60 660H0V720H60V660Z" fill="#C7CBFD"/>
<path d="M0 660L60 720H0V660Z" fill="#BFC3FC"/>
<path d="M120 660H60V720H120V660Z" fill="#939AFB"/>
<path d="M120 660V720H60L120 660Z" fill="#FFF0CC"/>
<path d="M240 600H120V720H240V600Z" fill="#7079F9"/>
<path d="M240 600H120V720H240V600Z" fill="#FFE3A2"/>
<path d="M360 600H240V720H360V600Z" fill="#BCC0FC"/>
<path d="M240 600H360V720L240 600Z" fill="#FFD062"/>
<path d="M480 600H360V720H480V600Z" fill="#C3C6FC"/>
<path d="M360 600H480L360 720V600Z" fill="#FFD063"/>
<path d="M600 600H480V720H600V600Z" fill="#FFE8B3"/>
<path d="M600 600H480V720H600V600Z" fill="#FFF9EC"/>
<path d="M720 600H600V720H720V600Z" fill="#FFF4DB"/>
<path d="M720 600H600V720H720V600Z" fill="#FFF3D6"/>
<path d="M840 600H720V720H840V600Z" fill="white"/>
<path d="M780 600H720V660H780V600Z" fill="#FFCE5C"/>
<path d="M750 660C766.569 660 780 646.569 780 630C780 613.431 766.569 600 750 600C733.431 600 720 613.431 720 630C720 646.569 733.431 660 750 660Z" fill="#8189FA"/>
<path d="M840 600H780V660H840V600Z" fill="#FFDA85"/>
<path d="M840 600H780V660H840V600Z" fill="#F0F1FE"/>
<path d="M780 660H720V720H780V660Z" fill="#ACB1FC"/>
<path d="M750 720C766.569 720 780 706.569 780 690C780 673.431 766.569 660 750 660C733.431 660 720 673.431 720 690C720 706.569 733.431 720 750 720Z" fill="#FFE29E"/>
<path d="M840 660H780V720H840V660Z" fill="#FFD168"/>
<path d="M840 660H780V720H840V660Z" fill="#FFCC57"/>
<path d="M960 600H840V720H960V600Z" fill="#FFD77B"/>
<path d="M840 600C871.826 600 902.348 612.643 924.853 635.147C947.357 657.652 960 688.174 960 720H840" fill="#9EA4FB"/>
<path d="M1080 600H960V720H1080V600Z" fill="#FFDE92"/>
<path d="M960 600C991.826 600 1022.35 612.643 1044.85 635.147C1067.36 657.652 1080 688.174 1080 720L960 600C960 631.826 972.643 662.348 995.147 684.853C1017.65 707.357 1048.17 720 1080 720" fill="#FFD677"/>
<path d="M1200 600H1080V720H1200V600Z" fill="white"/>
<path d="M1140 600H1080V660H1140V600Z" fill="#C8CBFD"/>
<path d="M1080 660C1095.91 660 1111.17 653.679 1122.43 642.426C1133.68 631.174 1140 615.913 1140 600H1080" fill="#727BF9"/>
<path d="M1200 600H1140V660H1200V600Z" fill="#E6E8FE"/>
<path d="M1140 600C1140 615.913 1146.32 631.174 1157.57 642.426C1168.83 653.679 1184.09 660 1200 660V600" fill="#ABB0FC"/>
<path d="M1140 660H1080V720H1140V660Z" fill="#A6ACFB"/>
<path d="M1080 660C1095.91 660 1111.17 666.321 1122.43 677.574C1133.68 688.826 1140 704.087 1140 720H1080" fill="#DCDEFE"/>
<path d="M1200 660H1140V720H1200V660Z" fill="#FFD77A"/>
<path d="M1140 720C1140 704.087 1146.32 688.826 1157.57 677.574C1168.83 666.321 1184.09 660 1200 660V720" fill="#FFD87F"/>
<path d="M1320 600H1200V720H1320V600Z" fill="#878FFA"/>
<path d="M1320 600V720H1200L1320 600Z" fill="#5E69F8"/>
<path d="M1440 600H1320V720H1440V600Z" fill="#B4B9FC"/>
<path d="M1320 720C1320 688.174 1332.64 657.652 1355.15 635.147C1377.65 612.643 1408.17 600 1440 600L1320 720C1351.83 720 1382.35 707.357 1404.85 684.853C1427.36 662.348 1440 631.826 1440 600" fill="#5661F8"/>
<path d="M1560 600H1440V720H1560V600Z" fill="white"/>
<path d="M1500 600H1440V660H1500V600Z" fill="#FFF2D3"/>
<path d="M1440 600C1440 615.913 1446.32 631.174 1457.57 642.426C1468.83 653.679 1484.09 660 1500 660V600" fill="#AFB4FC"/>
<path d="M1560 600H1500V660H1560V600Z" fill="#FFFCF6"/>
<path d="M1500 660C1515.91 660 1531.17 653.679 1542.43 642.426C1553.68 631.174 1560 615.913 1560 600H1500" fill="#FFDB86"/>
<path d="M1500 660H1440V720H1500V660Z" fill="#FFCD5A"/>
<path d="M1440 720C1440 704.087 1446.32 688.826 1457.57 677.574C1468.83 666.321 1484.09 660 1500 660V720" fill="#FFFBF3"/>
<path d="M1560 660H1500V720H1560V660Z" fill="#FFD87F"/>
<path d="M1500 660C1515.91 660 1531.17 666.321 1542.43 677.574C1553.68 688.826 1560 704.087 1560 720H1500" fill="#DBDEFE"/>
<path d="M1680 600H1560V720H1680V600Z" fill="#FFDF96"/>
<path d="M1560 600C1591.83 600 1622.35 612.643 1644.85 635.147C1667.36 657.652 1680 688.174 1680 720H1560" fill="#FFD677"/>
<path d="M1800 600H1680V720H1800V600Z" fill="white"/>
<path d="M1740 600H1680V660H1740V600Z" fill="#C3C7FC"/>
<path d="M1710 660C1726.57 660 1740 646.569 1740 630C1740 613.431 1726.57 600 1710 600C1693.43 600 1680 613.431 1680 630C1680 646.569 1693.43 660 1710 660Z" fill="#5C67F8"/>
<path d="M1800 600H1740V660H1800V600Z" fill="#FFE8B4"/>
<path d="M1800 600H1740V660H1800V600Z" fill="#E7E9FE"/>
<path d="M1740 660H1680V720H1740V660Z" fill="#FFE6AB"/>
<path d="M1710 720C1726.57 720 1740 706.569 1740 690C1740 673.431 1726.57 660 1710 660C1693.43 660 1680 673.431 1680 690C1680 706.569 1693.43 720 1710 720Z" fill="#FFE19B"/>
<path d="M1800 660H1740V720H1800V660Z" fill="#9098FA"/>
<path d="M1800 660H1740V720H1800V660Z" fill="#727BF9"/>
<path d="M1920 600H1800V720H1920V600Z" fill="white"/>
<path d="M1860 600H1800V660H1860V600Z" fill="#FFD064"/>
<path d="M1800 660C1800 644.087 1806.32 628.826 1817.57 617.574C1828.83 606.321 1844.09 600 1860 600V615C1848.07 615 1836.62 619.741 1828.18 628.18C1819.74 636.619 1815 648.065 1815 660" fill="#FFD573"/>
<path d="M1920 600H1860V660H1920V600Z" fill="#FFF9EB"/>
<path d="M1860 600C1875.91 600 1891.17 606.321 1902.43 617.574C1913.68 628.826 1920 644.087 1920 660H1905C1905 648.065 1900.26 636.619 1891.82 628.18C1883.38 619.741 1871.93 615 1860 615" fill="#8088FA"/>
<path d="M1860 660H1800V720H1860V660Z" fill="#989FFB"/>
<path d="M1800 660C1800 675.913 1806.32 691.174 1817.57 702.426C1828.83 713.679 1844.09 720 1860 720V705C1854.09 705 1848.24 703.836 1842.78 701.575C1837.32 699.313 1832.36 695.998 1828.18 691.82C1824 687.641 1820.69 682.68 1818.43 677.221C1816.16 671.761 1815 665.909 1815 660" fill="#5863F8"/>
<path d="M1920 660H1860V720H1920V660Z" fill="#FFDC89"/>
<path d="M1860 720C1875.91 720 1891.17 713.679 1902.43 702.426C1913.68 691.174 1920 675.913 1920 660H1905C1905 665.909 1903.84 671.761 1901.57 677.221C1899.31 682.68 1896 687.641 1891.82 691.82C1887.64 695.998 1882.68 699.313 1877.22 701.575C1871.76 703.836 1865.91 705 1860 705" fill="#FFD678"/>
<path d="M120 720H0V840H120V720Z" fill="white"/>
<path d="M60 720H0V780H60V720Z" fill="#9198FA"/>
<path d="M0 720H60L0 780V720Z" fill="#8B93FA"/>
<path d="M120 720H60V780H120V720Z" fill="#8991FA"/>
<path d="M120 720V780H60L120 720Z" fill="#BFC4FC"/>
<path d="M60 780H0V840H60V780Z" fill="#FFCC54"/>
<path d="M0 780H60V840L0 780Z" fill="#959CFB"/>
<path d="M120 780H60V840H120V780Z" fill="#FFF9EC"/>
<path d="M60 780L120 840H60V780Z" fill="#F1F2FE"/>
<path d="M240 720H120V840H240V720Z" fill="white"/>
<path d="M180 720H120V780H180V720Z" fill="#A9AFFB"/>
<path d="M120 720H180L120 780V720Z" fill="#FFFEFC"/>
<path d="M240 720H180V780H240V720Z" fill="#9CA2FB"/>
<path d="M180 720H240V780L180 720Z" fill="#626CF8"/>
<path d="M180 780H120V840H180V780Z" fill="#D5D7FD"/>
<path d="M120 780L180 840H120V780Z" fill="#FFFCF7"/>
<path d="M240 780H180V840H240V780Z" fill="#828BFA"/>
<path d="M240 780V840H180L240 780Z" fill="#EAEBFE"/>
<path d="M360 720H240V840H360V720Z" fill="#FFFBF1"/>
<path d="M240 840C240 808.174 252.643 777.652 275.147 755.147C297.652 732.643 328.174 720 360 720V840" fill="#FFD46F"/>
<path d="M480 720H360V840H480V720Z" fill="white"/>
<path d="M420 720H360V780H420V720Z" fill="#FFF6E2"/>
<path d="M390 780C406.569 780 420 766.569 420 750C420 733.431 406.569 720 390 720C373.431 720 360 733.431 360 750C360 766.569 373.431 780 390 780Z" fill="#5964F8"/>
<path d="M480 720H420V780H480V720Z" fill="#99A0FB"/>
<path d="M480 720H420V780H480V720Z" fill="#FFDC8B"/>
<path d="M420 780H360V840H420V780Z" fill="#ECEDFE"/>
<path d="M390 840C406.569 840 420 826.569 420 810C420 793.431 406.569 780 390 780C373.431 780 360 793.431 360 810C360 826.569 373.431 840 390 840Z" fill="#939AFB"/>
<path d="M480 780H420V840H480V780Z" fill="#FFECBF"/>
<path d="M480 780H420V840H480V780Z" fill="#FFF0CD"/>
<path d="M600 720H480V840H600V720Z" fill="white"/>
<path d="M540 720H480V780H540V720Z" fill="#8F96FA"/>
<path d="M480 780C480 764.087 486.321 748.826 497.574 737.574C508.826 726.321 524.087 720 540 720V735C528.065 735 516.619 739.741 508.18 748.18C499.741 756.619 495 768.065 495 780" fill="#B2B7FC"/>
<path d="M600 720H540V780H600V720Z" fill="#6972F9"/>
<path d="M540 720C555.913 720 571.174 726.321 582.426 737.574C593.679 748.826 600 764.087 600 780H585C585 768.065 580.259 756.619 571.82 748.18C563.381 739.741 551.935 735 540 735" fill="#A9AFFB"/>
<path d="M540 780H480V840H540V780Z" fill="#DADCFD"/>
<path d="M480 780C480 795.913 486.321 811.174 497.574 822.426C508.826 833.679 524.087 840 540 840V825C528.065 825 516.619 820.259 508.18 811.82C499.741 803.381 495 791.935 495 780" fill="#8D94FA"/>
<path d="M600 780H540V840H600V780Z" fill="#9198FA"/>
<path d="M540 840C555.913 840 571.174 833.679 582.426 822.426C593.679 811.174 600 795.913 600 780H585C585 791.935 580.259 803.381 571.82 811.82C563.381 820.259 551.935 825 540 825" fill="#FFE3A1"/>
<path d="M720 720H600V840H720V720Z" fill="white"/>
<path d="M660 720H600V780H660V720Z" fill="#FFCF60"/>
<path d="M630 780C646.569 780 660 766.569 660 750C660 733.431 646.569 720 630 720C613.431 720 600 733.431 600 750C600 766.569 613.431 780 630 780Z" fill="#C3C7FD"/>
<path d="M720 720H660V780H720V720Z" fill="#838BFA"/>
<path d="M720 720H660V780H720V720Z" fill="#FFE7B0"/>
<path d="M660 780H600V840H660V780Z" fill="#AAB0FB"/>
<path d="M630 840C646.569 840 660 826.569 660 810C660 793.431 646.569 780 630 780C613.431 780 600 793.431 600 810C600 826.569 613.431 840 630 840Z" fill="#5D68F8"/>
<path d="M720 780H660V840H720V780Z" fill="#FFD165"/>
<path d="M720 780H660V840H720V780Z" fill="#FFFEFC"/>
<path d="M840 720H720V840H840V720Z" fill="#656FF9"/>
<path d="M720 840C751.826 840 782.348 827.357 804.853 804.853C827.357 782.348 840 751.826 840 720H720" fill="#F0F1FE"/>
<path d="M960 720H840V840H960V720Z" fill="white"/>
<path d="M900 720H840V780H900V720Z" fill="#FFF0CC"/>
<path d="M840 720H900L840 780V720Z" fill="#8B92FA"/>
<path d="M960 720H900V780H960V720Z" fill="#5A65F8"/>
<path d="M960 720V780H900L960 720Z" fill="#D1D4FD"/>
<path d="M900 780H840V840H900V780Z" fill="white"/>
<path d="M840 780H900V840L840 780Z" fill="#FFE8B1"/>
<path d="M960 780H900V840H960V780Z" fill="#5964F8"/>
<path d="M900 780L960 840H900V780Z" fill="#9FA6FB"/>
<path d="M1080 720H960V840H1080V720Z" fill="#A1A7FB"/>
<path d="M960 840C960 808.174 972.643 777.652 995.147 755.147C1017.65 732.643 1048.17 720 1080 720V840" fill="#E9EAFE"/>
<path d="M1200 720H1080V840H1200V720Z" fill="white"/>
<path d="M1140 720H1080V780H1140V720Z" fill="#9097FA"/>
<path d="M1080 780C1080 764.087 1086.32 748.826 1097.57 737.574C1108.83 726.321 1124.09 720 1140 720V780" fill="#FFEEC6"/>
<path d="M1200 720H1140V780H1200V720Z" fill="#D8DBFD"/>
<path d="M1140 720C1155.91 720 1171.17 726.321 1182.43 737.574C1193.68 748.826 1200 764.087 1200 780H1140" fill="#FFE6AC"/>
<path d="M1140 780H1080V840H1140V780Z" fill="#FFCC55"/>
<path d="M1080 780C1080 795.913 1086.32 811.174 1097.57 822.426C1108.83 833.679 1124.09 840 1140 840V780" fill="#C3C7FC"/>
<path d="M1200 780H1140V840H1200V780Z" fill="#636DF9"/>
<path d="M1140 840C1155.91 840 1171.17 833.679 1182.43 822.426C1193.68 811.174 1200 795.913 1200 780H1140" fill="#848CFA"/>
<path d="M1320 720H1200V840H1320V720Z" fill="#A5ABFB"/>
<path d="M1200 720L1320 840H1200V720Z" fill="#E0E2FE"/>
<path d="M1440 720H1320V840H1440V720Z" fill="#FFFBF3"/>
<path d="M1440 720H1320V840H1440V720Z" fill="#8B92FA"/>
<path d="M1560 720H1440V840H1560V720Z" fill="white"/>
<path d="M1500 720H1440V780H1500V720Z" fill="#AEB4FC"/>
<path d="M1440 780C1455.91 780 1471.17 773.679 1482.43 762.426C1493.68 751.174 1500 735.913 1500 720H1440" fill="#FFEDC4"/>
<path d="M1560 720H1500V780H1560V720Z" fill="#6C76F9"/>
<path d="M1500 720C1500 735.913 1506.32 751.174 1517.57 762.426C1528.83 773.679 1544.09 780 1560 780V720" fill="#FFD063"/>
<path d="M1500 780H1440V840H1500V780Z" fill="#FFD36D"/>
<path d="M1440 780C1455.91 780 1471.17 786.321 1482.43 797.574C1493.68 808.826 1500 824.087 1500 840H1440" fill="#FFDB87"/>
<path d="M1560 780H1500V840H1560V780Z" fill="#FFF9EB"/>
<path d="M1500 840C1500 824.087 1506.32 808.826 1517.57 797.574C1528.83 786.321 1544.09 780 1560 780V840" fill="#737CF9"/>
<path d="M1680 720H1560V840H1680V720Z" fill="#FFD87C"/>
<path d="M1560 720C1560 751.826 1572.64 782.348 1595.15 804.853C1617.65 827.357 1648.17 840 1680 840V720" fill="#FFE09A"/>
<path d="M1800 720H1680V840H1800V720Z" fill="#FFF2D4"/>
<path d="M1800 720H1680V840H1800V720Z" fill="#DCDFFE"/>
<path d="M1920 720H1800V840H1920V720Z" fill="#DEE0FE"/>
<path d="M1800 720L1920 840H1800V720Z" fill="#FFCE5B"/>
<path d="M120 840H0V960H120V840Z" fill="white"/>
<path d="M60 840H0V900H60V840Z" fill="#5C66F8"/>
<path d="M30 900C46.5685 900 60 886.568 60 870C60 853.431 46.5685 840 30 840C13.4315 840 0 853.431 0 870C0 886.568 13.4315 900 30 900Z" fill="#FFE6AE"/>
<path d="M120 840H60V900H120V840Z" fill="#F0F1FE"/>
<path d="M120 840H60V900H120V840Z" fill="#6F78F9"/>
<path d="M60 900H0V960H60V900Z" fill="#858DFA"/>
<path d="M30 960C46.5685 960 60 946.569 60 930C60 913.431 46.5685 900 30 900C13.4315 900 0 913.431 0 930C0 946.569 13.4315 960 30 960Z" fill="#FFD063"/>
<path d="M120 900H60V960H120V900Z" fill="#FFD36E"/>
<path d="M120 900H60V960H120V900Z" fill="#9097FA"/>
<path d="M240 840H120V960H240V840Z" fill="white"/>
<path d="M180 840H120V900H180V840Z" fill="#848CFA"/>
<path d="M120 900C120 884.087 126.321 868.826 137.574 857.574C148.826 846.321 164.087 840 180 840V855C168.065 855 156.619 859.741 148.18 868.18C139.741 876.619 135 888.065 135 900" fill="#636DF9"/>
<path d="M240 840H180V900H240V840Z" fill="#FFDE90"/>
<path d="M180 840C195.913 840 211.174 846.321 222.426 857.574C233.679 868.826 240 884.087 240 900H225C225 888.065 220.259 876.619 211.82 868.18C203.381 859.741 191.935 855 180 855" fill="#FFE3A1"/>
<path d="M180 900H120V960H180V900Z" fill="#FFE19C"/>
<path d="M120 900C120 915.913 126.321 931.174 137.574 942.426C148.826 953.679 164.087 960 180 960V945C168.065 945 156.619 940.259 148.18 931.82C139.741 923.381 135 911.935 135 900" fill="#9198FA"/>
<path d="M240 900H180V960H240V900Z" fill="#BFC3FC"/>
<path d="M180 960C195.913 960 211.174 953.679 222.426 942.426C233.679 931.174 240 915.913 240 900H225C225 911.935 220.259 923.381 211.82 931.82C203.381 940.259 191.935 945 180 945" fill="#FFCD58"/>
<path d="M360 840H240V960H360V840Z" fill="white"/>
<path d="M300 840H240V900H300V840Z" fill="#5D67F8"/>
<path d="M240 900C240 884.087 246.321 868.826 257.574 857.574C268.826 846.321 284.087 840 300 840V900" fill="#FFFDF8"/>
<path d="M360 840H300V900H360V840Z" fill="#A2A8FB"/>
<path d="M300 840C315.913 840 331.174 846.321 342.426 857.574C353.679 868.826 360 884.087 360 900H300" fill="#8C93FA"/>
<path d="M300 900H240V960H300V900Z" fill="#D7DAFD"/>
<path d="M240 900C240 915.913 246.321 931.174 257.574 942.426C268.826 953.679 284.087 960 300 960V900" fill="#8A91FA"/>
<path d="M360 900H300V960H360V900Z" fill="#F9FAFF"/>
<path d="M300 960C315.913 960 331.174 953.679 342.426 942.426C353.679 931.174 360 915.913 360 900H300" fill="#FFE3A3"/>
<path d="M480 840H360V960H480V840Z" fill="white"/>
<path d="M420 840H360V900H420V840Z" fill="#FFF8E9"/>
<path d="M360 840C360 855.913 366.321 871.174 377.574 882.426C388.826 893.679 404.087 900 420 900V840" fill="#646EF9"/>
<path d="M480 840H420V900H480V840Z" fill="#FFFAEF"/>
<path d="M420 900C435.913 900 451.174 893.679 462.426 882.426C473.679 871.174 480 855.913 480 840H420" fill="#CDD0FD"/>
<path d="M420 900H360V960H420V900Z" fill="#FFECC1"/>
<path d="M360 960C360 944.087 366.321 928.826 377.574 917.574C388.826 906.321 404.087 900 420 900V960" fill="#6D76F9"/>
<path d="M480 900H420V960H480V900Z" fill="#5964F8"/>
<path d="M420 900C435.913 900 451.174 906.321 462.426 917.574C473.679 928.826 480 944.087 480 960H420" fill="#FFECC1"/>
<path d="M600 840H480V960H600V840Z" fill="#FFF6E0"/>
<path d="M480 840L600 960H480V840Z" fill="#D4D6FD"/>
<path d="M720 840H600V960H720V840Z" fill="white"/>
<path d="M660 840H600V900H660V840Z" fill="#DFE1FE"/>
<path d="M600 900C615.913 900 631.174 893.679 642.426 882.426C653.679 871.174 660 855.913 660 840H600" fill="#C8CBFD"/>
<path d="M720 840H660V900H720V840Z" fill="#FFFDF9"/>
<path d="M660 840C660 855.913 666.321 871.174 677.574 882.426C688.826 893.679 704.087 900 720 900V840" fill="#FFDE92"/>
<path d="M660 900H600V960H660V900Z" fill="#FFECBF"/>
<path d="M600 900C615.913 900 631.174 906.321 642.426 917.574C653.679 928.826 660 944.087 660 960H600" fill="#FFE3A2"/>
<path d="M720 900H660V960H720V900Z" fill="#D0D3FD"/>
<path d="M660 960C660 944.087 666.321 928.826 677.574 917.574C688.826 906.321 704.087 900 720 900V960" fill="#6973F9"/>
<path d="M840 840H720V960H840V840Z" fill="white"/>
<path d="M780 840H720V900H780V840Z" fill="#FFECC0"/>
<path d="M720 840H780L720 900V840Z" fill="#5762F8"/>
<path d="M840 840H780V900H840V840Z" fill="#F0F1FE"/>
<path d="M780 840H840V900L780 840Z" fill="#FFD779"/>
<path d="M780 900H720V960H780V900Z" fill="#FFCF60"/>
<path d="M780 900V960H720L780 900Z" fill="#FDFDFF"/>
<path d="M840 900H780V960H840V900Z" fill="#6771F9"/>
<path d="M780 900L840 960H780V900Z" fill="#B8BCFC"/>
<path d="M960 840H840V960H960V840Z" fill="white"/>
<path d="M900 840H840V900H900V840Z" fill="#FFFDF9"/>
<path d="M840 900C855.913 900 871.174 893.679 882.426 882.426C893.679 871.174 900 855.913 900 840H840" fill="#FFF2D3"/>
<path d="M960 840H900V900H960V840Z" fill="#8B93FA"/>
<path d="M900 840C900 855.913 906.321 871.174 917.574 882.426C928.826 893.679 944.087 900 960 900V840" fill="#FFE6AC"/>
<path d="M900 900H840V960H900V900Z" fill="#616BF8"/>
<path d="M840 900C855.913 900 871.174 906.321 882.426 917.574C893.679 928.826 900 944.087 900 960H840" fill="#6D76F9"/>
<path d="M960 900H900V960H960V900Z" fill="#C4C8FD"/>
<path d="M900 960C900 944.087 906.321 928.826 917.574 917.574C928.826 906.321 944.087 900 960 900V960" fill="#FFDF95"/>
<path d="M1080 840H960V960H1080V840Z" fill="white"/>
<path d="M1020 840H960V900H1020V840Z" fill="#DADDFD"/>
<path d="M960 840C967.879 840 975.681 841.552 982.961 844.567C990.241 847.582 996.855 852.002 1002.43 857.574C1008 863.145 1012.42 869.759 1015.43 877.039C1018.45 884.319 1020 892.121 1020 900H960" fill="#FFF3D7"/>
<path d="M1080 840H1020V900H1080V840Z" fill="#C1C5FC"/>
<path d="M1020 900C1020 884.087 1026.32 868.826 1037.57 857.574C1048.83 846.321 1064.09 840 1080 840V900" fill="#636DF9"/>
<path d="M1020 900H960V960H1020V900Z" fill="#949BFB"/>
<path d="M960 960C967.879 960 975.681 958.448 982.961 955.433C990.241 952.418 996.855 947.998 1002.43 942.426C1008 936.855 1012.42 930.241 1015.43 922.961C1018.45 915.681 1020 907.879 1020 900H960" fill="#FFDA84"/>
<path d="M1080 900H1020V960H1080V900Z" fill="#A1A7FB"/>
<path d="M1020 900C1020 915.913 1026.32 931.174 1037.57 942.426C1048.83 953.679 1064.09 960 1080 960V900" fill="#B8BDFC"/>
<path d="M1200 840H1080V960H1200V840Z" fill="#CFD2FD"/>
<path d="M1080 840L1200 960H1080V840Z" fill="#6A73F9"/>
<path d="M1320 840H1200V960H1320V840Z" fill="white"/>
<path d="M1260 840H1200V900H1260V840Z" fill="#FFCD58"/>
<path d="M1200 840H1260L1200 900V840Z" fill="#FFFAF0"/>
<path d="M1320 840H1260V900H1320V840Z" fill="#FFE098"/>
<path d="M1320 840V900H1260L1320 840Z" fill="#AAAFFB"/>
<path d="M1260 900H1200V960H1260V900Z" fill="#9EA4FB"/>
<path d="M1200 900H1260V960L1200 900Z" fill="#7981F9"/>
<path d="M1320 900H1260V960H1320V900Z" fill="#FFF0CD"/>
<path d="M1260 900L1320 960H1260V900Z" fill="#7E87FA"/>
<path d="M1440 840H1320V960H1440V840Z" fill="white"/>
<path d="M1380 840H1320V900H1380V840Z" fill="#C6CAFD"/>
<path d="M1320 840H1380L1320 900V840Z" fill="#FFE6AB"/>
<path d="M1440 840H1380V900H1440V840Z" fill="#FFF3D6"/>
<path d="M1380 840H1440V900L1380 840Z" fill="white"/>
<path d="M1380 900H1320V960H1380V900Z" fill="#FFFAEF"/>
<path d="M1380 900V960H1320L1380 900Z" fill="#FFE4A7"/>
<path d="M1440 900H1380V960H1440V900Z" fill="#ABB1FC"/>
<path d="M1380 900L1440 960H1380V900Z" fill="#C6CAFD"/>
<path d="M1560 840H1440V960H1560V840Z" fill="#FFD46F"/>
<path d="M1560 840H1440V960H1560V840Z" fill="#FDFDFF"/>
<path d="M1680 840H1560V960H1680V840Z" fill="#FFF4D9"/>
<path d="M1560 840L1680 960H1560V840Z" fill="#8A91FA"/>
<path d="M1800 840H1680V960H1800V840Z" fill="white"/>
<path d="M1740 840H1680V900H1740V840Z" fill="#FFDE90"/>
<path d="M1710 900C1726.57 900 1740 886.568 1740 870C1740 853.431 1726.57 840 1710 840C1693.43 840 1680 853.431 1680 870C1680 886.568 1693.43 900 1710 900Z" fill="#F6F6FF"/>
<path d="M1800 840H1740V900H1800V840Z" fill="#F2F3FE"/>
<path d="M1800 840H1740V900H1800V840Z" fill="#BBC0FC"/>
<path d="M1740 900H1680V960H1740V900Z" fill="#BCC0FC"/>
<path d="M1710 960C1726.57 960 1740 946.569 1740 930C1740 913.431 1726.57 900 1710 900C1693.43 900 1680 913.431 1680 930C1680 946.569 1693.43 960 1710 960Z" fill="#FFD678"/>
<path d="M1800 900H1740V960H1800V900Z" fill="#FFF9EA"/>
<path d="M1800 900H1740V960H1800V900Z" fill="#ADB2FC"/>
<path d="M1920 840H1800V960H1920V840Z" fill="#EDEFFE"/>
<path d="M1800 840C1831.83 840 1862.35 852.643 1884.85 875.147C1907.36 897.652 1920 928.174 1920 960H1800" fill="#C7CBFD"/>
<path d="M120 960H0V1080H120V960Z" fill="white"/>
<path d="M60 960H0V1020H60V960Z" fill="#FFE9B6"/>
<path d="M0 960C15.913 960 31.1742 966.321 42.4264 977.574C53.6786 988.826 60 1004.09 60 1020H0" fill="#B1B7FC"/>
<path d="M120 960H60V1020H120V960Z" fill="#FFDB87"/>
<path d="M60 1020C60 1004.09 66.3214 988.826 77.5736 977.574C88.8258 966.321 104.087 960 120 960V1020" fill="#FFD062"/>
<path d="M60 1020H0V1080H60V1020Z" fill="#6670F9"/>
<path d="M0 1080C15.913 1080 31.1742 1073.68 42.4264 1062.43C53.6786 1051.17 60 1035.91 60 1020H0" fill="#C4C8FD"/>
<path d="M120 1020H60V1080H120V1020Z" fill="#8991FA"/>
<path d="M60 1020C60 1035.91 66.3214 1051.17 77.5736 1062.43C88.8258 1073.68 104.087 1080 120 1080V1020" fill="#848CFA"/>
<path d="M240 960H120V1080H240V960Z" fill="white"/>
<path d="M180 960H120V1020H180V960Z" fill="#ABB0FC"/>
<path d="M120 960H180L120 1020V960Z" fill="#E4E6FE"/>
<path d="M240 960H180V1020H240V960Z" fill="#D6D9FD"/>
<path d="M240 960V1020H180L240 960Z" fill="#FFFAF0"/>
<path d="M180 1020H120V1080H180V1020Z" fill="#AAAFFB"/>
<path d="M120 1020H180V1080L120 1020Z" fill="#FFECC0"/>
<path d="M240 1020H180V1080H240V1020Z" fill="#FFEEC6"/>
<path d="M180 1020L240 1080H180V1020Z" fill="#FFE4A6"/>
<path d="M360 960H240V1080H360V960Z" fill="white"/>
<path d="M300 960H240V1020H300V960Z" fill="#9299FA"/>
<path d="M240 960H300L240 1020V960Z" fill="#A1A7FB"/>
<path d="M360 960H300V1020H360V960Z" fill="#FFEEC6"/>
<path d="M300 960H360V1020L300 960Z" fill="#C7CAFD"/>
<path d="M300 1020H240V1080H300V1020Z" fill="#FFF7E5"/>
<path d="M300 1020V1080H240L300 1020Z" fill="#EDEFFE"/>
<path d="M360 1020H300V1080H360V1020Z" fill="#D7DAFD"/>
<path d="M300 1020L360 1080H300V1020Z" fill="#7C84FA"/>
<path d="M480 960H360V1080H480V960Z" fill="white"/>
<path d="M420 960H360V1020H420V960Z" fill="#FFF6E2"/>
<path d="M360 960H420L360 1020V960Z" fill="#8890FA"/>
<path d="M480 960H420V1020H480V960Z" fill="#FFF6E1"/>
<path d="M420 960H480V1020L420 960Z" fill="#FFECC1"/>
<path d="M420 1020H360V1080H420V1020Z" fill="#FFEFC9"/>
<path d="M360 1020L420 1080H360V1020Z" fill="#FFF7E6"/>
<path d="M480 1020H420V1080H480V1020Z" fill="#B9BEFC"/>
<path d="M480 1020V1080H420L480 1020Z" fill="#D0D3FD"/>
<path d="M600 960H480V1080H600V960Z" fill="#FFEEC8"/>
<path d="M480 960L600 1080H480V960Z" fill="#FFE29F"/>
<path d="M720 960H600V1080H720V960Z" fill="#FFE5A7"/>
<path d="M600 960L720 1080H600V960Z" fill="#BCC0FC"/>
<path d="M840 960H720V1080H840V960Z" fill="#828AFA"/>
<path d="M720 1080C720 1048.17 732.643 1017.65 755.147 995.147C777.652 972.643 808.174 960 840 960L720 1080C751.826 1080 782.348 1067.36 804.853 1044.85C827.357 1022.35 840 991.826 840 960" fill="#B7BBFC"/>
<path d="M960 960H840V1080H960V960Z" fill="white"/>
<path d="M900 960H840V1020H900V960Z" fill="#E2E4FE"/>
<path d="M840 1020C840 1004.09 846.321 988.826 857.574 977.574C868.826 966.321 884.087 960 900 960V975C888.065 975 876.619 979.741 868.18 988.18C859.741 996.619 855 1008.07 855 1020" fill="#DBDEFE"/>
<path d="M960 960H900V1020H960V960Z" fill="#FFCC55"/>
<path d="M900 960C915.913 960 931.174 966.321 942.426 977.574C953.679 988.826 960 1004.09 960 1020H945C945 1008.07 940.259 996.619 931.82 988.18C923.381 979.741 911.935 975 900 975" fill="#E7E9FE"/>
<path d="M900 1020H840V1080H900V1020Z" fill="white"/>
<path d="M840 1020C840 1035.91 846.321 1051.17 857.574 1062.43C868.826 1073.68 884.087 1080 900 1080V1065C888.065 1065 876.619 1060.26 868.18 1051.82C859.741 1043.38 855 1031.93 855 1020" fill="#FFE8B2"/>
<path d="M960 1020H900V1080H960V1020Z" fill="#848CFA"/>
<path d="M900 1080C915.913 1080 931.174 1073.68 942.426 1062.43C953.679 1051.17 960 1035.91 960 1020H945C945 1031.93 940.259 1043.38 931.82 1051.82C923.381 1060.26 911.935 1065 900 1065" fill="#FFD575"/>
<path d="M1080 960H960V1080H1080V960Z" fill="white"/>
<path d="M1020 960H960V1020H1020V960Z" fill="#767FF9"/>
<path d="M960 1020C967.879 1020 975.681 1018.45 982.961 1015.43C990.241 1012.42 996.855 1008 1002.43 1002.43C1008 996.855 1012.42 990.241 1015.43 982.961C1018.45 975.682 1020 967.879 1020 960H960" fill="#FFFAED"/>
<path d="M1080 960H1020V1020H1080V960Z" fill="#F0F1FE"/>
<path d="M1020 960C1020 975.913 1026.32 991.174 1037.57 1002.43C1048.83 1013.68 1064.09 1020 1080 1020V960" fill="#FFDC8B"/>
<path d="M1020 1020H960V1080H1020V1020Z" fill="#CBCFFD"/>
<path d="M960 1020C975.913 1020 991.174 1026.32 1002.43 1037.57C1013.68 1048.83 1020 1064.09 1020 1080H960" fill="#D0D3FD"/>
<path d="M1080 1020H1020V1080H1080V1020Z" fill="#FFEBBC"/>
<path d="M1020 1080C1020 1064.09 1026.32 1048.83 1037.57 1037.57C1048.83 1026.32 1064.09 1020 1080 1020V1080" fill="#9198FA"/>
<path d="M1200 960H1080V1080H1200V960Z" fill="white"/>
<path d="M1140 960H1080V1020H1140V960Z" fill="#FFECC1"/>
<path d="M1080 960H1140L1080 1020V960Z" fill="#A3A9FB"/>
<path d="M1200 960H1140V1020H1200V960Z" fill="#B8BCFC"/>
<path d="M1140 960H1200V1020L1140 960Z" fill="#FFFBF1"/>
<path d="M1140 1020H1080V1080H1140V1020Z" fill="#DFE1FE"/>
<path d="M1080 1020L1140 1080H1080V1020Z" fill="#FFDB86"/>
<path d="M1200 1020H1140V1080H1200V1020Z" fill="#FFD982"/>
<path d="M1200 1020V1080H1140L1200 1020Z" fill="#A8ADFB"/>
<path d="M1320 960H1200V1080H1320V960Z" fill="#FFF6E1"/>
<path d="M1320 960H1200V1080H1320V960Z" fill="#FFD87F"/>
<path d="M1440 960H1320V1080H1440V960Z" fill="#FFFEFC"/>
<path d="M1440 960H1320V1080H1440V960Z" fill="#DDDFFE"/>
<path d="M1560 960H1440V1080H1560V960Z" fill="white"/>
<path d="M1500 960H1440V1020H1500V960Z" fill="#DDDFFE"/>
<path d="M1440 1020C1440 1004.09 1446.32 988.826 1457.57 977.574C1468.83 966.321 1484.09 960 1500 960V975C1488.07 975 1476.62 979.741 1468.18 988.18C1459.74 996.619 1455 1008.07 1455 1020" fill="#6973F9"/>
<path d="M1560 960H1500V1020H1560V960Z" fill="#FFFCF5"/>
<path d="M1500 960C1515.91 960 1531.17 966.321 1542.43 977.574C1553.68 988.826 1560 1004.09 1560 1020H1545C1545 1008.07 1540.26 996.619 1531.82 988.18C1523.38 979.741 1511.93 975 1500 975" fill="#FFFEFC"/>
<path d="M1500 1020H1440V1080H1500V1020Z" fill="#FFCE5E"/>
<path d="M1440 1020C1440 1035.91 1446.32 1051.17 1457.57 1062.43C1468.83 1073.68 1484.09 1080 1500 1080V1065C1488.07 1065 1476.62 1060.26 1468.18 1051.82C1459.74 1043.38 1455 1031.93 1455 1020" fill="#868DFA"/>
<path d="M1560 1020H1500V1080H1560V1020Z" fill="#FFD980"/>
<path d="M1500 1080C1515.91 1080 1531.17 1073.68 1542.43 1062.43C1553.68 1051.17 1560 1035.91 1560 1020H1545C1545 1031.93 1540.26 1043.38 1531.82 1051.82C1523.38 1060.26 1511.93 1065 1500 1065" fill="#E1E3FE"/>
<path d="M1680 960H1560V1080H1680V960Z" fill="#FFD77B"/>
<path d="M1560 960C1560 991.826 1572.64 1022.35 1595.15 1044.85C1617.65 1067.36 1648.17 1080 1680 1080V960" fill="#FFFFFE"/>
<path d="M1800 960H1680V1080H1800V960Z" fill="#FFD062"/>
<path d="M1680 960C1711.83 960 1742.35 972.643 1764.85 995.147C1787.36 1017.65 1800 1048.17 1800 1080H1680" fill="#FFD26B"/>
<path d="M1920 960H1800V1080H1920V960Z" fill="#FFD26A"/>
<path d="M1800 960H1920L1800 1080V960Z" fill="#FFF7E3"/>
<path d="M120 1080H0V1200H120V1080Z" fill="#BEC3FC"/>
<path d="M120 1080V1200H0L120 1080Z" fill="#A4AAFB"/>
<path d="M240 1080H120V1200H240V1080Z" fill="white"/>
<path d="M180 1080H120V1140H180V1080Z" fill="#FFD471"/>
<path d="M120 1080H180L120 1140V1080Z" fill="#838BFA"/>
<path d="M240 1080H180V1140H240V1080Z" fill="#FFFDF7"/>
<path d="M240 1080V1140H180L240 1080Z" fill="#B3B8FC"/>
<path d="M180 1140H120V1200H180V1140Z" fill="#FFE099"/>
<path d="M120 1140H180V1200L120 1140Z" fill="#FFEFC9"/>
<path d="M240 1140H180V1200H240V1140Z" fill="#9FA5FB"/>
<path d="M180 1140L240 1200H180V1140Z" fill="#FFF5DD"/>
<path d="M360 1080H240V1200H360V1080Z" fill="#E6E8FE"/>
<path d="M360 1080H240V1200H360V1080Z" fill="#B7BCFC"/>
<path d="M480 1080H360V1200H480V1080Z" fill="#CFD2FD"/>
<path d="M480 1080H360V1200H480V1080Z" fill="#FFFAEE"/>
<path d="M600 1080H480V1200H600V1080Z" fill="#D1D4FD"/>
<path d="M600 1080H480V1200H600V1080Z" fill="#FFE2A0"/>
<path d="M720 1080H600V1200H720V1080Z" fill="white"/>
<path d="M660 1080H600V1140H660V1080Z" fill="#727BF9"/>
<path d="M600 1140C600 1124.09 606.321 1108.83 617.574 1097.57C628.826 1086.32 644.087 1080 660 1080V1140" fill="#FFEAB9"/>
<path d="M720 1080H660V1140H720V1080Z" fill="#FFE7B0"/>
<path d="M660 1080C675.913 1080 691.174 1086.32 702.426 1097.57C713.679 1108.83 720 1124.09 720 1140H660" fill="#FFE5AA"/>
<path d="M660 1140H600V1200H660V1140Z" fill="#FFE9B7"/>
<path d="M600 1140C600 1155.91 606.321 1171.17 617.574 1182.43C628.826 1193.68 644.087 1200 660 1200V1140" fill="#6A74F9"/>
<path d="M720 1140H660V1200H720V1140Z" fill="#FFF4DC"/>
<path d="M660 1200C675.913 1200 691.174 1193.68 702.426 1182.43C713.679 1171.17 720 1155.91 720 1140H660" fill="#FFEDC2"/>
<path d="M840 1080H720V1200H840V1080Z" fill="#FFEEC8"/>
<path d="M720 1080H840V1200L720 1080Z" fill="#F8F8FF"/>
<path d="M960 1080H840V1200H960V1080Z" fill="white"/>
<path d="M900 1080H840V1140H900V1080Z" fill="#828AFA"/>
<path d="M840 1080C855.913 1080 871.174 1086.32 882.426 1097.57C893.679 1108.83 900 1124.09 900 1140H840" fill="#FFE19C"/>
<path d="M960 1080H900V1140H960V1080Z" fill="#FFD980"/>
<path d="M900 1140C900 1124.09 906.321 1108.83 917.574 1097.57C928.826 1086.32 944.087 1080 960 1080V1140" fill="#FFEBBD"/>
<path d="M900 1140H840V1200H900V1140Z" fill="#656FF9"/>
<path d="M840 1200C855.913 1200 871.174 1193.68 882.426 1182.43C893.679 1171.17 900 1155.91 900 1140H840" fill="#FFF5DD"/>
<path d="M960 1140H900V1200H960V1140Z" fill="#FFDF94"/>
<path d="M900 1140C900 1155.91 906.321 1171.17 917.574 1182.43C928.826 1193.68 944.087 1200 960 1200V1140" fill="#E5E6FE"/>
<path d="M1080 1080H960V1200H1080V1080Z" fill="white"/>
<path d="M1020 1080H960V1140H1020V1080Z" fill="#9198FA"/>
<path d="M960 1140C967.879 1140 975.681 1138.45 982.961 1135.43C990.241 1132.42 996.855 1128 1002.43 1122.43C1008 1116.85 1012.42 1110.24 1015.43 1102.96C1018.45 1095.68 1020 1087.88 1020 1080H960" fill="#5661F8"/>
<path d="M1080 1080H1020V1140H1080V1080Z" fill="#FFE3A3"/>
<path d="M1020 1080C1020 1095.91 1026.32 1111.17 1037.57 1122.43C1048.83 1133.68 1064.09 1140 1080 1140V1080" fill="#FFE5A8"/>
<path d="M1020 1140H960V1200H1020V1140Z" fill="#FFE4A5"/>
<path d="M960 1140C967.879 1140 975.681 1141.55 982.961 1144.57C990.241 1147.58 996.855 1152 1002.43 1157.57C1008 1163.15 1012.42 1169.76 1015.43 1177.04C1018.45 1184.32 1020 1192.12 1020 1200H960" fill="#FFF0CF"/>
<path d="M1080 1140H1020V1200H1080V1140Z" fill="#FFFCF6"/>
<path d="M1020 1200C1020 1184.09 1026.32 1168.83 1037.57 1157.57C1048.83 1146.32 1064.09 1140 1080 1140V1200" fill="#FFDF93"/>
<path d="M1200 1080H1080V1200H1200V1080Z" fill="#FFFAF0"/>
<path d="M1080 1080H1200V1200L1080 1080Z" fill="#FFFEFC"/>
<path d="M1320 1080H1200V1200H1320V1080Z" fill="white"/>
<path d="M1260 1080H1200V1140H1260V1080Z" fill="#FFD168"/>
<path d="M1200 1140C1200 1124.09 1206.32 1108.83 1217.57 1097.57C1228.83 1086.32 1244.09 1080 1260 1080V1140" fill="#FFD77B"/>
<path d="M1320 1080H1260V1140H1320V1080Z" fill="#FFFBF0"/>
<path d="M1260 1080C1275.91 1080 1291.17 1086.32 1302.43 1097.57C1313.68 1108.83 1320 1124.09 1320 1140H1260" fill="#D8DAFD"/>
<path d="M1260 1140H1200V1200H1260V1140Z" fill="#FFFAEE"/>
<path d="M1200 1140C1200 1155.91 1206.32 1171.17 1217.57 1182.43C1228.83 1193.68 1244.09 1200 1260 1200V1140" fill="#ACB1FC"/>
<path d="M1320 1140H1260V1200H1320V1140Z" fill="#FFFEFD"/>
<path d="M1260 1200C1275.91 1200 1291.17 1193.68 1302.43 1182.43C1313.68 1171.17 1320 1155.91 1320 1140H1260" fill="#FFF4DA"/>
<path d="M1440 1080H1320V1200H1440V1080Z" fill="#FFE099"/>
<path d="M1320 1200C1351.83 1200 1382.35 1187.36 1404.85 1164.85C1427.36 1142.35 1440 1111.83 1440 1080H1320" fill="#5963F8"/>
<path d="M1560 1080H1440V1200H1560V1080Z" fill="white"/>
<path d="M1500 1080H1440V1140H1500V1080Z" fill="#FFDF94"/>
<path d="M1440 1080H1500L1440 1140V1080Z" fill="#FFD26A"/>
<path d="M1560 1080H1500V1140H1560V1080Z" fill="#A2A8FB"/>
<path d="M1500 1080H1560V1140L1500 1080Z" fill="#FFE7B0"/>
<path d="M1500 1140H1440V1200H1500V1140Z" fill="#FFDE91"/>
<path d="M1500 1140V1200H1440L1500 1140Z" fill="#B0B5FC"/>
<path d="M1560 1140H1500V1200H1560V1140Z" fill="#FFF5DD"/>
<path d="M1500 1140L1560 1200H1500V1140Z" fill="#EEEFFE"/>
<path d="M1680 1080H1560V1200H1680V1080Z" fill="white"/>
<path d="M1620 1080H1560V1140H1620V1080Z" fill="#838BFA"/>
<path d="M1590 1140C1606.57 1140 1620 1126.57 1620 1110C1620 1093.43 1606.57 1080 1590 1080C1573.43 1080 1560 1093.43 1560 1110C1560 1126.57 1573.43 1140 1590 1140Z" fill="#A2A8FB"/>
<path d="M1680 1080H1620V1140H1680V1080Z" fill="#AAB0FB"/>
<path d="M1680 1080H1620V1140H1680V1080Z" fill="#DDDFFE"/>
<path d="M1620 1140H1560V1200H1620V1140Z" fill="#C1C5FC"/>
<path d="M1590 1200C1606.57 1200 1620 1186.57 1620 1170C1620 1153.43 1606.57 1140 1590 1140C1573.43 1140 1560 1153.43 1560 1170C1560 1186.57 1573.43 1200 1590 1200Z" fill="#FFE19A"/>
<path d="M1680 1140H1620V1200H1680V1140Z" fill="#E9EBFE"/>
<path d="M1680 1140H1620V1200H1680V1140Z" fill="#FFE6AC"/>
<path d="M1800 1080H1680V1200H1800V1080Z" fill="white"/>
<path d="M1740 1080H1680V1140H1740V1080Z" fill="white"/>
<path d="M1680 1080H1740L1680 1140V1080Z" fill="#BABEFC"/>
<path d="M1800 1080H1740V1140H1800V1080Z" fill="#FFD36D"/>
<path d="M1800 1080V1140H1740L1800 1080Z" fill="#FFEABA"/>
<path d="M1740 1140H1680V1200H1740V1140Z" fill="#FFD36C"/>
<path d="M1680 1140H1740V1200L1680 1140Z" fill="#FFE19B"/>
<path d="M1800 1140H1740V1200H1800V1140Z" fill="white"/>
<path d="M1740 1140L1800 1200H1740V1140Z" fill="#F9F9FF"/>
<path d="M1920 1080H1800V1200H1920V1080Z" fill="#767FF9"/>
<path d="M1920 1080H1800V1200H1920V1080Z" fill="#FFDD8E"/>
</g>
<defs>
<clipPath id="clip0">
<rect width="1920" height="1200" fill="white"/>
</clipPath>
</defs>
</svg>
