<svg width="390" height="366" viewBox="0 0 390 366" fill="none" xmlns="http://www.w3.org/2000/svg">
<g clip-path="url(#clip0)">
<path fill-rule="evenodd" clip-rule="evenodd" d="M202.187 22.6152L197.026 36.2508C195.916 39.1331 194.806 42.0709 193.751 44.9532C193.363 46.0064 193.141 47.0595 192.364 47.7801C190.588 49.443 187.369 50.5516 185.26 51.7156C183.817 52.4916 182.374 53.323 180.986 54.099C180.265 54.4871 178.6 55.0413 178.1 55.7065C177.545 56.4825 177.823 57.8128 177.823 58.866V84.6961C185.204 83.7538 192.641 82.8669 200.023 81.9246C190.144 93.2876 180.32 104.651 170.441 116.014C167.999 118.841 165.058 121.501 163.226 124.771C159.397 131.7 155.623 138.684 151.793 145.668L141.137 165.124L173.05 163.794C181.319 163.461 189.811 163.96 197.747 161.632C204.296 159.692 210.845 157.752 217.45 155.867C218.338 155.59 221.057 155.313 221.668 154.592C222.223 153.927 222.223 151.433 222.389 150.602C225.497 134.693 229.438 117.178 238.484 103.542C244.978 93.731 253.692 85.1395 261.684 76.6034C264.792 73.2776 268.011 69.9518 271.008 66.5152C271.785 65.6284 272.895 64.6306 273.394 63.5775C273.727 62.9123 274.171 61.582 274.005 60.9723C273.894 60.6951 271.84 59.7528 271.563 59.5866C269.454 58.2562 267.4 56.8705 265.347 55.5402C259.519 51.7156 253.692 47.891 247.864 44.1218C243.313 41.184 238.762 38.08 233.933 35.5302C228.938 32.925 223.444 31.0404 218.227 28.9895C212.788 26.7169 207.515 24.6661 202.187 22.6152Z" fill="#FFD063"/>
<path fill-rule="evenodd" clip-rule="evenodd" d="M381.786 265.119C379.233 267.502 374.626 270.717 370.963 269.276C369.132 268.555 367.578 266.948 365.857 265.895C363.889 264.741 362.048 263.385 360.363 261.848C357.033 258.578 354.535 253.866 350.595 251.317C349.263 250.485 346.71 250.264 345.766 248.933C345.415 248.231 345.28 247.44 345.378 246.661C345.544 245.164 346.377 245.219 344.989 244.111H347.098C347.154 243.279 346.321 243.224 345.711 243.335C345.988 242.005 346.266 236.905 343.879 239.233C341.826 241.229 342.825 244.554 341.382 246.771C340.272 248.434 337.275 247.104 336.886 245.275C336.72 244.443 337.608 243.169 337.719 242.337C337.941 240.563 337.164 239.011 335.998 237.626C333.445 239.344 334.888 242.836 333.445 245.053C332.113 247.049 329.227 246.106 327.174 245.774C324.787 245.33 322.068 245.774 319.792 245.219C316.351 244.388 317.628 240.286 317.295 237.681C316.906 234.854 314.076 230.974 314.964 228.147C315.907 225.099 321.235 224.433 323.788 223.713C329.671 222.05 337.996 221.717 342.381 216.95C345.822 220.831 348.652 225.209 352.26 228.923C356.2 232.914 360.363 236.628 364.137 240.841C368.077 245.164 372.129 249.432 375.903 253.922C377.568 255.862 379.011 257.968 380.732 259.853C382.341 261.571 383.951 263.123 381.786 265.119ZM207.515 190.067C209.291 189.125 209.569 189.735 209.569 191.675C209.069 190.732 208.514 190.455 207.515 190.067ZM192.253 228.369V224.877C194.029 224.821 192.919 227.815 192.253 228.369ZM191.864 233.524C191.77 232.016 191.901 230.503 192.253 229.034C192.475 230.642 192.919 232.083 191.864 233.524ZM199.301 339.172C200.911 339.339 203.353 338.23 204.685 339.449C206.072 340.724 205.961 344.493 206.294 346.212C206.849 349.094 207.293 351.976 207.793 354.859C208.07 356.743 208.459 358.683 206.294 359.404C203.131 360.457 198.635 358.96 195.305 358.794C188.812 358.517 182.318 358.129 175.769 358.018C169.454 357.86 163.135 358.064 156.844 358.628C154.013 358.905 151.238 359.459 148.408 359.903C146.909 360.18 142.969 361.178 141.637 359.958C139.139 357.63 143.302 352.143 145.078 350.591C148.408 347.708 153.181 345.657 157.343 344.383C159.563 343.717 163.337 341.833 165.058 343.939C166.39 345.547 166.334 347.708 168.277 348.928C172.772 351.755 170.164 343.662 167.333 342.664C169.22 338.285 172.828 344.493 174.271 345.99C174.826 346.544 176.546 348.263 177.268 347.376C177.823 346.711 176.713 344.327 176.491 343.717C176.158 342.72 175.381 341.279 175.603 340.17C175.991 338.23 178.711 337.731 180.32 337.565C182.818 337.343 185.26 338.119 187.757 338.396C191.698 338.84 195.527 338.84 199.301 339.172ZM174.215 158.639C169.276 159.027 164.336 158.251 159.397 158.916C154.735 159.526 150.35 161.189 145.966 162.796C152.475 147.663 160.966 133.46 171.218 120.559C176.324 114.074 181.874 107.588 187.424 101.491C189.977 98.6088 192.641 95.8928 195.305 93.0659C197.692 90.5716 199.357 86.3589 202.243 84.5298C204.685 82.9223 208.903 84.0863 211.622 84.1972C214.675 84.308 218.393 84.5852 221.335 83.5875C223.499 82.8669 224.054 80.8714 221.39 80.816C218.227 80.7606 215.063 81.0931 211.844 80.7606C203.519 79.9846 195.472 78.7097 187.036 79.4303C185.093 79.5966 182.596 80.428 180.709 80.1508C179.377 79.9846 180.265 80.6497 179.321 79.5411C178.893 78.9635 178.59 78.3027 178.433 77.6011C177.823 74.4971 179.543 70.0627 179.932 66.9032C180.32 64.0209 179.987 60.806 180.709 57.9791C181.375 55.4294 183.317 55.0414 185.759 54.8196C192.364 54.0436 199.135 53.6556 205.795 53.1013C221.002 51.8265 236.653 49.8864 251.749 53.0459C257.188 54.2099 263.848 55.9837 268.677 58.8105C270.175 59.6974 271.729 60.7506 271.174 62.5797C270.619 64.5198 267.789 66.5152 266.401 67.7901C256.078 77.1022 246.143 86.6361 238.928 98.6643C229.715 113.963 224.387 130.425 221.279 147.941C220.613 151.71 220.003 153.706 216.118 154.759C212.041 155.927 207.858 156.688 203.63 157.031C193.751 157.863 183.983 157.863 174.215 158.639ZM177.49 57.4802C176.768 63.0232 175.714 68.5661 175.603 74.2199C175.547 76.3262 175.381 77.3794 173.105 77.8782C170.441 78.4325 167.722 78.876 165.058 79.4303C152.182 82.2017 139.528 85.6384 126.929 89.5184C114.663 93.2876 102.62 97.5002 90.0769 100.272C84.6934 101.491 78.3663 102.267 73.4823 104.928C68.2098 107.755 68.8758 112.466 68.4318 117.566C67.8213 124.439 65.7678 131.035 65.0463 137.908C64.6477 141.182 64.4439 144.477 64.4358 147.775C64.4913 150.602 64.8798 153.706 62.9928 156.034C59.2188 150.99 57.3872 144.615 56.6657 138.407C56.2772 135.414 56.4437 132.365 56.3327 129.317C56.2217 126.878 56.2772 122.998 54.7232 120.947C51.2822 116.512 46.7867 134.25 46.3427 136.134C45.6212 139.294 45.0107 142.509 44.2892 145.724C43.9562 147.109 43.5677 152.264 41.6807 152.763C37.7402 153.816 38.6282 142.786 38.5727 141.123C38.4617 137.742 38.3507 134.361 38.4617 130.98C38.5172 128.541 39.0167 125.88 38.7392 123.441C38.0732 117.455 34.6877 123.774 33.6887 125.991C31.3021 131.645 30.1921 137.687 28.0276 143.396C27.6946 144.338 26.8066 147.553 25.4746 147.608C23.9761 147.664 23.9761 144.338 23.9206 143.396C23.4211 137.797 21.7561 132.199 22.2556 126.49C22.8437 120.627 24.6792 114.958 27.6391 109.861C33.6332 99.3294 44.5112 93.2876 54.9452 87.7447C66.9009 81.4999 79.4036 76.3605 92.2969 72.3907C107.788 67.4837 123.583 63.5954 139.583 60.7506C147.686 59.3094 155.956 58.3117 164.17 57.4802C167.056 57.2031 169.942 57.0368 172.772 56.4825C173.938 56.2608 177.823 55.2631 177.49 57.4802ZM185.815 39.4657C181.763 39.5211 177.601 37.5257 173.605 36.6942C168.887 35.6965 164.281 34.3108 159.563 33.313C150.35 31.3176 141.082 29.3776 131.869 27.3821C127.873 26.4952 123.821 25.7192 119.825 24.7769C115.551 23.7792 110.945 22.6152 106.56 23.7238C99.9559 25.3866 97.1254 32.5925 94.7389 38.2463C93.0184 42.2372 91.6864 46.6715 89.0224 50.1636C88.0789 51.383 86.6914 52.8796 84.9709 52.4916C81.7518 51.771 82.2513 47.503 82.6953 45.1749C83.3058 41.7937 84.1383 38.4125 84.8044 35.0314C85.0818 33.5902 87.1909 24.6661 83.4168 26.0518C80.6418 27.105 79.1433 33.8673 78.0888 36.2508C77.3118 38.0245 76.4793 39.8537 75.5913 41.572C74.4258 43.9001 71.0958 51.7156 67.3773 50.7179C62.1048 49.2767 67.1553 35.3639 68.0433 32.4262C68.5428 30.8187 73.9263 18.6243 69.3753 19.622C67.4328 20.0654 65.5458 23.6129 64.5468 25.1095C62.7708 27.7701 61.0503 30.4307 59.3853 33.0913C57.6647 35.8628 56.8322 39.0223 55.1672 41.7937C54.2792 43.2349 52.5032 45.1749 50.7272 43.8446C48.0077 41.7383 49.6172 34.5325 50.1167 31.8165C51.1022 26.5974 53.2243 21.6586 56.3327 17.3494C60.9393 11.0859 69.5418 9.09042 76.8123 7.87097C86.1918 6.31895 95.6824 6.70696 105.117 7.64926C115.718 8.70241 126.152 9.811 136.586 11.9173C147.131 14.0791 157.621 16.1854 167.999 19.0123C172.883 20.3426 177.823 21.562 182.651 23.114C187.757 24.7769 192.752 26.8832 198.025 28.0473C196.193 32.6479 194.306 37.2485 192.475 41.8492C190.637 40.2409 188.257 39.389 185.815 39.4657ZM276.447 52.159C278.056 51.2722 279.832 50.8287 280.443 48.8887C280.942 47.1704 280.054 45.1749 279.666 43.512C278.382 38.8858 278.23 34.0194 279.222 29.3221C280.221 30.8742 283.995 36.8051 286.326 33.2022C287.713 31.0404 283.995 27.9364 282.885 26.3844C285.271 24.8878 288.657 20.9523 291.432 23.3358C293.208 24.8878 293.985 26.3289 296.371 27.105C299.257 27.9918 302.032 27.8255 304.974 27.5484C307.027 27.3821 307.527 27.105 308.359 28.7124C308.911 30.0613 309.357 31.4513 309.691 32.8696C310.413 35.5302 312.133 40.7406 310.135 43.2349C308.359 45.3966 301.533 43.5675 300.589 46.3389C300.09 47.891 302.532 47.9464 303.475 48.667C304.646 49.7234 305.59 51.0055 306.25 52.4362C306.694 53.4339 307.416 55.0413 306.639 56.0945C305.529 57.4802 303.475 56.4271 302.587 55.4294C301.422 54.0991 301.033 52.2145 300.034 50.7733C298.203 48.0573 298.092 50.219 297.648 52.159C297.148 54.1545 295.927 54.0436 294.04 54.2653C290.766 54.7142 287.523 55.3621 284.328 56.2054C282.701 56.6516 281.106 57.2071 279.555 57.8682C278.556 58.3117 276.835 59.5866 275.725 59.5866C273.727 59.5866 272.34 56.2608 271.285 54.8751C273.006 54.0436 274.726 53.1013 276.447 52.159ZM384.173 257.248C379.177 251.261 374.848 244.721 369.909 238.679C365.025 232.692 359.419 227.482 353.925 222.05C351.316 219.5 348.874 216.673 346.044 214.456C343.935 212.793 342.27 212.738 339.717 213.514C332.347 215.582 325.148 218.214 318.183 221.385C311.8 224.323 305.973 228.147 298.98 229.755C291.869 231.386 284.563 232.002 277.279 231.584C269.931 231.079 262.676 229.645 255.69 227.316C248.974 225.154 241.981 223.269 236.264 219.001C230.27 214.512 225.608 208.082 221.279 202.04C219.115 198.991 216.95 195.776 215.452 192.284C214.175 189.291 213.343 185.688 211.067 183.249C210.512 184.025 209.791 184.746 209.513 185.633C209.402 186.076 210.124 186.021 210.068 186.353C209.902 186.963 209.069 187.628 208.57 187.961C206.794 189.18 206.794 188.238 207.238 190.511C207.515 191.841 207.016 194.945 204.796 193.947C205.628 194.945 204.296 196.164 203.908 196.94C203.777 196.781 203.602 196.664 203.404 196.604C203.206 196.545 202.995 196.546 202.798 196.608C203.63 198.215 203.131 198.271 202.354 199.546C202.108 199.961 201.921 200.409 201.799 200.876C201.022 202.04 200.078 202.317 199.634 203.703C199.246 204.867 199.357 206.142 198.913 207.306C198.413 206.585 197.858 205.865 197.359 205.144C197.485 205.788 197.671 206.419 197.914 207.029C198.08 207.361 198.746 208.082 198.746 208.248C198.691 208.913 197.914 208.747 197.692 209.301C197.248 210.354 197.858 210.521 197.636 211.518C197.359 212.682 196.637 212.239 196.304 213.237C196.249 213.403 196.748 214.179 196.693 214.567C196.582 215.121 196.027 215.454 195.86 216.008C195.361 217.339 195.583 218.281 194.917 219.556C194.605 219.986 194.344 220.451 194.14 220.941C193.973 221.44 194.306 222.493 194.029 222.881C192.586 224.988 192.752 221.385 192.863 220.443C193.807 212.904 196.804 205.089 199.523 198.049C200.911 194.557 202.187 190.899 203.908 187.573C204.542 186.169 205.426 184.892 206.516 183.804C207.959 182.473 209.957 181.975 211.289 180.533C211.067 180.755 212.677 179.259 212.455 179.757C212.677 179.314 212.288 178.704 212.399 178.261C212.566 177.707 212.899 177.596 213.287 177.152C213.953 176.321 214.786 175.877 213.731 174.824C215.285 174.492 216.062 173.993 216.395 172.274C216.617 171.055 216.173 171.11 216.95 170.279C217.783 169.448 218.171 170.113 218.671 168.672C219.244 166.76 219.708 164.816 220.058 162.851C220.391 161.299 219.614 159.027 220.891 157.918C222.556 156.532 224.054 157.142 223.777 154.315C223.499 151.599 224.332 149.936 225.164 147.331C226.885 142.176 227.551 136.689 229.049 131.478C232.268 120.337 237.874 110.249 243.923 100.438C249.529 91.3476 257.355 83.6429 264.903 76.2154C266.956 74.1645 269.01 72.1136 270.897 69.8964C272.506 67.9564 273.228 65.3512 274.782 63.522C275.725 62.4135 277.446 61.9146 278.778 61.3603C280.942 60.3626 283.551 59.0877 285.993 59.3094C284.994 62.5797 284.716 66.4598 287.602 68.8987C291.099 71.8919 294.262 68.7878 297.481 67.0695C303.309 63.9655 311.689 66.7924 316.795 62.1363C318.016 61.0277 318.349 59.254 319.626 58.2008C320.569 57.4248 321.846 57.2585 322.9 56.7042C326.064 54.9859 327.618 51.8264 326.397 48.3344C325.287 45.1749 323.511 44.0663 327.396 42.4589C330.559 41.1286 331.78 39.1886 330.337 35.6965C328.95 32.3707 326.452 31.9827 324.121 29.7656C321.846 27.6593 324.454 25.1649 326.175 23.5575C328.395 21.5066 328.839 19.6774 326.23 17.5157C323.566 15.2985 319.681 15.3539 316.573 16.4625C313.021 17.7374 310.69 19.7883 309.192 23.1695C307.638 26.6061 303.864 25.6638 300.811 24.6661C297.87 23.7792 297.093 21.7837 295.206 19.6774C293.041 17.294 288.712 19.3448 286.159 20.398C279.943 23.0586 273.783 27.2712 273.505 34.6433C273.339 39.0777 275.226 42.8469 276.225 47.0041C277.113 50.8287 271.008 50.4961 269.953 54.1545C258.687 48.1681 246.088 46.3389 233.489 45.9509C220.058 45.5075 206.461 45.1749 193.196 47.2812C196.304 41.9046 197.914 36.0291 200.578 30.4861C201.355 28.8787 201.688 29.045 203.408 29.4884C206.683 30.4307 209.957 31.4284 213.232 32.3707C225.164 35.8628 236.875 40.02 248.419 44.6206C249.529 45.0641 252.027 46.2835 253.025 44.9532C254.136 43.4012 251.527 41.5166 250.472 40.7406C245.81 37.3594 240.038 35.2531 234.821 32.8696C223.444 27.6593 210.845 25.1649 198.913 21.2849C173.085 13.0103 146.665 6.71009 119.88 2.4389C113.387 1.38574 106.782 1.27488 100.289 0.498869C94.4984 -0.175671 88.6479 -0.157062 82.8618 0.554298C72.1503 1.82917 59.7738 4.60064 53.7242 14.4116C48.2852 23.1695 44.6777 33.0913 46.0652 43.5675C46.5092 46.7269 47.8412 50.4407 51.7262 49.6093C54.4457 49.055 55.8332 46.7824 57.1097 44.5098C58.9967 41.1286 60.8838 37.7474 62.9373 34.4771C63.7143 39.4103 60.9393 44.2326 61.3833 49.2213C61.6608 52.6025 63.5478 57.9791 67.9878 57.0368C74.0373 55.7065 76.5348 46.2835 79.4763 41.7383C79.6428 45.2304 78.4218 48.667 78.7548 52.159C79.1433 55.5956 81.8073 58.866 85.6369 58.4225C89.2444 57.9791 91.5754 54.1545 93.0739 51.2722C95.1829 47.2812 96.7369 42.9577 98.7904 38.9114C100.733 35.1422 103.008 30.597 107.67 29.8764C111.777 29.2667 116.55 30.7079 120.602 31.3176C131.924 32.9805 143.024 35.8628 154.235 38.1908C166.223 40.6852 178.544 42.1817 190.144 46.1727C186.037 51.7156 175.325 50.5516 169.276 51.1059C160.063 51.9927 150.739 52.7133 141.581 54.0436C132.535 55.3739 123.655 57.702 114.719 59.3648C105.783 61.0277 96.9034 62.746 88.2454 65.6284C72.2058 70.9496 55.8887 77.712 41.7917 87.0241C35.2427 91.3476 29.3596 96.3362 25.3081 103.154C21.2011 110.027 19.2586 117.843 18.4816 125.714C18.0376 130.647 18.8146 134.915 19.7581 139.682C20.4241 143.174 20.7016 148.994 23.4766 151.488C28.8046 156.366 33.2446 136.633 34.1882 134.25C34.9097 138.13 33.7441 160.08 42.2912 158.306C46.1207 157.53 46.9532 152.264 47.6192 149.16C48.7847 143.396 49.7837 137.576 51.7817 132.033C53.0582 139.46 53.5577 147.22 56.2772 154.371C58.1087 159.082 63.2703 167.452 66.8778 159.415C69.5973 153.373 68.6538 146.389 68.9868 139.959C69.3198 132.809 71.3733 125.935 72.1503 118.896C72.4278 116.18 72.1503 113.076 74.9253 111.579C77.3118 110.304 80.7528 109.861 83.3058 109.14C90.9649 107.034 98.6239 105.094 106.227 102.821C113.831 100.549 121.323 97.9437 128.872 95.3939C136.031 92.955 143.413 91.5693 150.683 89.463C154.79 88.2435 158.897 87.0241 163.115 86.0264C165.058 85.5829 167.056 85.1949 168.998 84.6961C170.441 84.3635 172.328 82.9777 173.827 83.0332C175.381 83.0332 175.936 84.3635 177.656 84.4743C179.543 84.5852 181.43 84.1418 183.317 84.0309C187.868 83.6983 192.752 83.0886 197.303 83.7538C194.584 87.0241 190.865 89.2413 187.646 91.9019C183.878 94.9905 180.353 98.3631 177.101 101.99C170.667 109.385 164.61 117.1 158.953 125.104C153.403 132.975 148.907 141.567 145.022 150.38C143 154.749 141.276 159.249 139.861 163.849C139.306 165.734 138.862 167.618 137.863 169.337C136.975 170.889 135.643 172.274 136.753 174.159C137.474 173.672 138.16 173.135 138.806 172.552C138.029 177.984 136.364 183.305 135.476 188.737C134.644 194.114 134.644 199.601 134.699 205.033C134.81 216.341 135.643 227.427 137.974 238.568C140.284 249.839 143.324 260.948 147.076 271.826C150.683 282.246 154.346 293.221 159.397 303.032C164.836 313.564 171.218 324.594 179.099 333.463C173.993 335.569 167.444 335.181 162.061 336.013C156.587 336.764 151.342 338.693 146.687 341.667C141.803 344.826 139.139 348.928 138.473 354.692C137.974 358.794 136.586 364.503 141.97 365.557C145.855 366.333 150.184 365.058 154.069 364.725C160.895 364.171 167.666 363.838 174.493 363.506C181.319 363.229 188.09 362.951 194.917 362.73C198.136 362.619 201.299 362.563 204.518 362.453C205.731 362.335 206.955 362.448 208.126 362.785C209.125 363.118 209.069 363.783 210.179 362.951C212.011 361.621 211.622 357.298 211.567 355.413C211.527 352.489 211.211 349.575 210.623 346.711C210.29 344.992 206.183 334.128 209.402 333.629C205.739 329.583 204.241 323.818 202.576 318.719C200.522 312.344 198.691 306.025 197.248 299.485C194.266 285.567 192.796 271.369 192.863 257.137C207.016 265.839 222.001 270.551 238.706 271.105C255.301 271.604 273.505 270.274 289.267 264.731C296.442 262.266 303.213 258.754 309.358 254.31C311.578 252.702 314.02 249.044 316.962 249.1C320.458 249.155 324.399 250.485 327.895 251.095C334.555 252.204 343.269 252.813 348.93 256.915C351.982 259.132 354.202 262.292 356.922 264.841C359.031 266.781 361.75 267.89 363.804 269.83C366.024 271.936 365.136 274.708 368.854 274.874C372.018 275.04 375.459 273.766 378.178 272.269C383.396 269.608 389.168 263.289 384.173 257.248Z" fill="black"/>
<path fill-rule="evenodd" clip-rule="evenodd" d="M331.891 115.847C339.828 121.501 348.985 125.326 357.31 130.425C359.364 131.7 365.857 134.361 365.802 136.689C365.746 138.075 363.804 139.793 362.971 140.735C361.528 142.398 360.141 144.005 358.809 145.779C352.648 153.706 346.821 161.743 340.161 169.281C339.162 170.39 336.109 175.822 335.166 173.161C334.722 171.942 335.11 170.556 333.945 169.448C333.334 168.838 331.059 168.561 331.725 167.286C332.169 167.507 332.613 167.674 333.057 167.896C332.724 166.898 332.724 165.789 332.224 164.847C331.891 164.237 331.281 163.96 331.059 163.295C330.781 162.353 331.281 161.299 331.17 160.357C330.983 159.42 330.685 158.508 330.282 157.641C328.561 152.375 327.951 147.054 327.063 141.622C326.175 136.245 324.843 131.035 324.288 125.603C323.733 119.838 323.011 114.129 322.123 108.42C323.788 108.642 325.065 110.471 326.23 111.468C328.012 113.059 329.904 114.522 331.891 115.847ZM325.675 171.498C325.292 171.208 324.987 170.827 324.787 170.39C328.672 168.45 326.341 171.776 325.675 171.498ZM323.289 167.397C321.568 167.84 320.347 167.951 319.071 167.286C318.96 167.23 319.071 166.731 318.849 166.621C318.627 166.51 318.349 166.621 318.183 166.565C317.628 166.288 316.629 166.898 316.518 165.789C318.682 165.124 320.847 163.905 323.122 163.683C326.286 163.35 326.175 166.621 323.289 167.397ZM315.852 160.967C313.521 161.521 311.634 162.796 309.136 162.463C306.805 162.131 304.807 160.967 302.976 159.581C307.527 158.306 312.3 158.085 316.906 156.81C318.405 156.422 320.347 155.313 321.957 155.756C323.733 156.255 323.844 157.918 324.399 159.415C321.513 159.914 318.682 160.302 315.852 160.967ZM301.366 154.592C299.146 155.147 296.871 156.311 294.984 154.26C294.706 153.927 294.429 154.26 294.429 153.262C294.484 152.209 295.428 151.544 296.26 151.156C298.203 150.269 300.922 150.823 302.976 150.712C306.25 150.491 309.58 149.826 312.799 149.327C315.019 148.939 317.35 148.163 319.626 148.329C321.402 148.44 323.511 149.936 320.958 151.045C318.627 152.043 315.075 151.876 312.522 152.32C308.803 152.93 305.085 153.706 301.366 154.592ZM299.146 144.116L299.59 144.56C299.59 144.56 300.423 143.839 300.7 143.839C301.81 143.728 302.976 143.839 304.086 143.728C306.697 143.526 309.292 143.156 311.856 142.62C313.965 142.232 316.074 141.511 318.238 141.677C320.07 141.844 320.292 142.232 320.403 144.005C315.685 144.005 310.801 143.895 306.139 144.892C303.087 145.557 299.757 147.498 298.258 144.005C298.536 144.061 298.869 144.061 299.146 144.116ZM302.143 136.522C303.309 137.409 306.528 135.913 307.915 135.802C309.412 135.679 310.896 135.438 312.355 135.081C313.687 134.749 318.016 133.03 319.015 134.693C320.569 137.188 314.298 137.631 313.299 137.742C309.136 138.241 304.807 138.684 300.756 139.793C301.255 138.684 301.699 137.576 302.143 136.522ZM307.86 128.097C308.137 129.261 317.572 125.049 317.739 128.097C317.85 130.425 308.415 131.645 306.75 131.423C307.138 130.314 308.193 129.372 307.86 128.097ZM311.023 120.947C311.245 118.619 311.523 118.674 313.41 118.453C314.797 118.286 316.74 117.455 316.407 119.949C316.018 122.111 310.801 123.275 311.023 120.947ZM314.353 112.965C314.797 111.746 315.796 113.408 315.796 114.018C315.852 115.681 314.575 115.348 313.354 115.348C313.744 114.579 314.078 113.782 314.353 112.965ZM329.893 103.708C329.616 103.431 328.228 103.32 327.84 103.154C326.841 102.821 327.007 102.045 325.731 102.766C325.675 102.711 325.786 102.156 325.731 102.101C325.306 101.958 324.897 101.772 324.51 101.547C323.827 101.116 323.177 100.634 322.567 100.105C321.932 99.4052 321.225 98.7736 320.458 98.2208C320.171 97.963 319.83 97.7735 319.459 97.6665C318.46 97.5002 318.738 98.2208 317.85 98.3317C317.295 98.4425 316.906 97.7774 316.185 98.0545C315.574 98.2762 315.186 99.1631 314.908 99.662C313.909 101.547 313.132 103.542 312.133 105.427C307.138 115.127 301.422 124.439 296.593 134.194C294.262 138.906 291.82 143.673 290.155 148.662C288.99 152.264 286.27 157.53 288.601 161.133C290.266 163.738 293.652 164.902 296.316 166.177C300.367 168.062 304.03 170.556 308.137 172.441C312.966 174.658 317.683 176.93 322.456 179.425C324.454 180.478 326.286 181.975 328.284 182.972C329.505 183.582 331.392 182.529 331.836 183.915C333.39 182.03 335.887 183.305 337.663 181.975C338.718 181.199 339.495 179.702 340.327 178.704C341.659 177.263 343.047 175.933 344.379 174.547C349.707 169.004 354.591 163.184 359.419 157.198C364.026 151.488 369.465 146.112 373.35 139.848C374.106 138.708 374.577 137.402 374.722 136.042C374.866 134.682 374.682 133.307 374.182 132.033C373.461 130.037 371.629 126.989 369.076 128.319C370.075 126.711 366.301 124.993 365.136 124.661C365.136 124.661 364.914 125.88 364.581 125.88C364.692 125.88 363.637 123.109 363.138 122.776C361.66 121.641 360.122 120.587 358.531 119.617C357.144 118.841 355.645 118.453 354.313 117.51C352.648 116.457 351.15 115.127 349.54 114.074C347.936 112.918 346.226 111.916 344.434 111.08C342.936 110.471 341.548 110.36 340.161 109.307C338.589 108.117 336.874 107.13 335.055 106.369C333.445 105.815 331.059 105.149 329.893 103.708Z" fill="black"/>
<path fill-rule="evenodd" clip-rule="evenodd" d="M99.1789 253.478C99.5119 252.758 99.7894 252.037 100.122 251.317C100.511 252.592 100.622 253.201 99.1789 253.478ZM99.6229 256.86C98.9569 256.97 99.2344 254.864 99.2344 254.476C100.344 255.141 99.4009 255.973 99.6229 256.86ZM98.5684 250.762C99.1234 250.43 99.7339 250.097 100.289 249.765C99.5119 251.261 99.7894 250.319 100.122 251.317C99.838 251.401 99.534 251.393 99.2545 251.294C98.975 251.194 98.7347 251.008 98.5684 250.762ZM95.1274 262.347C92.9628 270.163 86.1363 276.315 78.9213 279.475C74.7588 281.304 70.7073 281.747 66.2118 281.581C64.4912 281.526 62.4377 280.916 60.7727 281.027C59.4962 281.082 59.5517 281.138 58.4972 282.246C58.0532 281.359 58.3862 280.805 57.4427 280.251C56.2772 279.641 55.7777 280.362 55.2227 281.249C54.4457 280.472 54.1682 280.029 53.1692 279.586H52.2812C52.1147 279.53 51.0602 278.865 50.7272 278.699C49.3397 278.2 47.7857 277.978 46.5092 277.258C45.3992 276.592 44.5112 274.819 43.2347 276.204C43.2347 273.876 40.1266 272.934 38.6836 271.715C36.3964 269.694 34.6104 267.17 33.4666 264.343C32.2456 261.46 31.8571 258.689 31.3021 255.696C30.9136 253.645 28.3051 250.596 29.8591 248.545C30.2476 249.432 30.0811 250.319 30.6916 251.095C31.2021 250 31.5749 248.845 31.8016 247.658C31.9126 247.104 32.6341 245.386 32.5786 244.887C32.4121 243.889 31.1356 243.834 31.8571 242.559C33.3001 244.166 34.4656 241.339 33.4111 240.231C32.9473 240.843 32.6079 241.539 32.4121 242.282C30.9691 239.399 34.9651 240.342 34.0771 237.736C35.5201 237.459 36.3526 237.071 36.9076 235.686C37.5181 234.078 37.0741 233.746 38.4616 232.692C38.9611 232.36 40.2932 231.806 40.5152 231.196C41.0147 230.032 39.7936 229.699 40.8482 228.646C41.1812 229.256 42.6242 230.531 43.4012 229.311C43.5677 229.09 42.9017 228.923 43.4012 228.369C44.1227 227.537 44.8997 226.761 46.0652 226.928C45.1217 224.6 51.0602 224.433 52.6142 223.879C54.0429 223.34 55.5352 222.986 57.0542 222.826C58.6637 222.715 58.7747 222.216 60.1067 221.274C60.2177 222.66 60.5507 222.383 61.5497 222.604C61.7717 222.216 62.0492 222.161 62.2712 222.493C62.5126 222.716 62.8312 222.835 63.1592 222.826C63.7142 222.881 64.3247 222.771 64.8797 222.771C66.2118 222.771 67.5993 222.66 68.9313 222.715C69.2636 222.663 69.5834 222.55 69.8748 222.383C69.9858 222.604 70.0968 222.826 70.2633 223.103C70.9848 223.214 70.9848 224.045 71.8728 223.103C72.1503 224.323 72.8718 223.657 73.6488 223.99C74.3703 224.267 74.4813 224.766 75.0918 225.099C75.2806 225.263 75.5174 225.363 75.7672 225.383C76.0171 225.403 76.2667 225.342 76.4793 225.209C76.9233 225.542 77.4228 225.875 77.8668 226.207C78.7902 226.642 79.7349 227.031 80.6973 227.371C81.3078 227.648 81.9183 227.87 82.5288 228.147C82.5288 228.868 82.8618 229.145 83.5278 228.923C84.0332 229.26 84.467 229.693 84.8043 230.198C85.9777 231.982 87.3156 233.652 88.8003 235.187C95.6269 242.559 97.7914 252.758 95.1274 262.347ZM97.2919 231.528C94.1284 227.316 89.6883 222.493 85.6923 219.833C83.6388 218.503 80.8083 216.064 78.3108 215.343C77.7003 215.177 77.0898 215.177 76.5348 215.01C76.0908 214.9 75.8688 214.401 75.3138 214.345C74.9808 214.29 74.9253 215.066 74.5368 215.01C73.7598 214.844 73.2603 214.068 72.7053 213.569C71.4843 215.62 70.8738 212.184 69.0978 214.512C66.9888 211.241 62.0492 211.962 58.7192 212.128C57.7202 212.184 57.2762 212.516 56.3882 212.793C55.8121 212.961 55.2094 213.017 54.6122 212.96C52.4566 212.891 50.3132 213.308 48.3407 214.179C44.8997 215.842 41.6807 218.392 38.4061 220.387C34.7318 222.627 31.4195 225.412 28.5826 228.646C18.4261 240.342 15.7066 257.414 23.8096 270.994C36.6856 292.556 69.8748 294.829 88.6893 280.195C103.23 268.888 108.78 246.938 97.2919 231.528Z" fill="black"/>
<path fill-rule="evenodd" clip-rule="evenodd" d="M256.633 170.944C256.245 171.831 252.915 171.498 252.804 170.501C252.693 168.949 257.244 169.448 256.633 170.944ZM260.185 170.39C262.072 170.556 265.236 171.831 267.067 171.055C269.898 169.836 266.901 168.006 265.402 167.452C263.848 166.898 261.573 167.175 260.796 165.567C260.185 164.348 261.684 161.022 259.852 161.521C257.965 162.075 258.52 166.898 255.523 165.29C254.08 164.514 254.691 159.803 252.304 162.186C251.638 162.851 251.583 164.071 250.75 164.57C249.862 165.069 248.752 164.57 247.809 164.57C245.311 164.681 244.534 167.009 247.032 167.896C247.975 168.228 251.472 168.672 249.363 170.168C248.03 171.11 245.033 169.115 243.923 170.778C242.369 173.05 246.587 173.106 247.697 173.771C249.64 174.935 248.031 177.651 248.197 179.536C248.419 182.473 250.14 181.864 250.75 179.369C251.25 177.263 250.639 174.214 253.803 175.046C258.964 176.432 250.917 182.972 254.691 184.691C257.133 185.744 257.466 179.979 257.632 178.981C258.354 175.268 260.407 176.154 263.571 176.265C267.234 176.376 268.122 173.66 264.237 172.884C263.016 172.662 261.295 172.94 260.241 172.164C259.575 171.831 258.687 170.224 260.185 170.39Z" fill="black"/>
<path fill-rule="evenodd" clip-rule="evenodd" d="M124.709 290.838C121.712 289.785 116.772 290.006 116.051 293.831C115.91 294.636 115.962 295.462 116.204 296.243C116.445 297.023 116.868 297.735 117.438 298.321C118.715 299.651 120.768 299.817 120.657 297.434C120.602 295.826 119.048 294.385 121.767 294.053C123.488 293.831 125.985 295.106 126.041 296.99C126.207 301.203 118.937 301.536 116.217 300.815C110.889 299.374 112.332 293.776 115.995 291.226C116.939 290.561 119.658 289.563 119.769 288.177C119.936 286.348 117.66 286.736 116.606 286.958C108.503 288.731 106.727 302.312 115.218 304.861C119.048 306.025 124.487 304.806 126.818 301.369C128.982 298.044 129.038 292.334 124.709 290.838Z" fill="black"/>
<path fill-rule="evenodd" clip-rule="evenodd" d="M17.2051 194.779C14.6521 195.998 12.1546 197.218 9.60157 198.437C8.76907 196.663 7.32606 191.73 5.21705 191.12C1.77604 190.123 3.94055 195.444 4.55105 196.663C5.05055 197.661 6.16056 199.213 5.88306 200.433C5.49456 202.04 3.21905 202.594 2.05354 203.426C-0.887969 205.477 -0.887969 209.8 3.38555 207.971C5.77206 206.918 8.76907 204.091 10.6561 207.306C11.4886 208.802 13.5421 217.228 15.6511 211.74C16.9831 208.359 10.6561 204.811 13.7641 201.929C14.7631 200.987 15.9286 200.931 16.9276 200.377C19.3141 199.047 17.9821 196.719 17.2051 194.779Z" fill="black"/>
<path fill-rule="evenodd" clip-rule="evenodd" d="M388.834 73.0559C387.336 72.5016 385.449 71.4484 383.784 71.781C382.008 72.169 381.286 73.9428 379.954 75.0513C376.402 77.9891 374.349 73.6102 372.406 71.2267C370.575 68.9541 368.355 68.4553 365.746 69.7856C364.692 70.3399 360.363 72.8896 361.14 74.4971C361.695 75.6611 363.804 74.6079 364.581 74.3862C366.19 73.8319 367.633 73.333 369.243 74.1645C372.295 75.6611 373.072 79.8183 376.735 80.428C380.565 81.0932 380.676 77.4902 383.395 76.1045C385.227 75.2176 386.503 76.8251 388.224 76.4925C390 76.2154 390.777 73.7765 388.834 73.0559Z" fill="black"/>
<path fill-rule="evenodd" clip-rule="evenodd" d="M358.087 87.6338C359.419 87.9109 360.307 85.3058 361.14 84.6406C362.527 83.532 364.969 83.3103 366.412 84.4189C369.187 86.5806 368.244 91.2367 372.184 92.4562C375.736 93.5647 377.401 88.9087 380.343 87.7447C382.063 87.0795 383.95 86.6361 383.284 84.1972C382.84 82.5343 381.453 82.0909 379.954 82.756C377.401 83.8646 376.513 88.3544 373.461 88.4098C370.297 88.4652 369.964 83.9755 368.632 81.98C366.579 78.9868 362.305 78.2662 359.919 81.0931C359.253 82.0354 355.534 87.0795 358.087 87.6338Z" fill="black"/>
<path fill-rule="evenodd" clip-rule="evenodd" d="M295.816 36.1953C297.703 37.4702 301.422 37.4148 303.142 35.8628C304.918 34.2553 302.532 33.9782 301.144 34.0336C300.034 34.089 297.981 34.6433 298.591 32.7033C299.146 31.0404 302.199 31.8719 302.476 30.0427C300.201 29.6547 297.648 29.7655 295.927 31.5947C294.706 32.925 294.04 35.0313 295.816 36.1953Z" fill="black"/>
</g>
<defs>
<clipPath id="clip0">
<rect width="390" height="366" fill="white"/>
</clipPath>
</defs>
</svg>
