<svg width="109" height="25" viewBox="0 0 109 25" fill="none" xmlns="http://www.w3.org/2000/svg">
<path fill-rule="evenodd" clip-rule="evenodd" d="M12.9493 7.51849C10.3751 6.60895 6.1323 6.80041 5.51257 10.1035C5.39162 10.7984 5.43657 11.5122 5.64376 12.1863C5.85094 12.8603 6.21443 13.4754 6.70436 13.981C7.80081 15.1299 9.56465 15.2735 9.46931 13.215C9.42164 11.8268 8.08683 10.5822 10.4227 10.295C11.9006 10.1035 14.0458 11.2045 14.0935 12.8321C14.2365 16.4702 7.99149 16.7575 5.65558 16.1351C1.0791 14.8905 2.31856 10.0556 5.46489 7.85358C6.27531 7.27914 8.61122 6.41747 8.70657 5.22072C8.84958 3.64099 6.89504 3.97608 5.98928 4.16756C-0.970779 5.69941 -2.49627 17.4276 4.79749 19.6297C8.08684 20.6349 12.7587 19.5818 14.7609 16.6138C16.6201 13.7416 16.6677 8.81098 12.9493 7.51849Z" fill="black"/>
<path d="M32.388 18.461C32.578 18.7523 32.7743 18.9867 32.977 19.164C33.1797 19.3413 33.4393 19.4933 33.756 19.62V20C32.8693 19.962 31.8813 19.943 30.792 19.943C29.956 19.943 29.1517 19.962 28.379 20V19.62C28.7337 19.5947 28.987 19.5567 29.139 19.506C29.3037 19.4553 29.386 19.3667 29.386 19.24C29.386 19.1387 29.3163 18.9803 29.177 18.765L26.422 14.3C26.1687 13.8947 25.9533 13.6223 25.776 13.483C25.6113 13.3437 25.3833 13.2613 25.092 13.236V17.986C25.092 18.4673 25.1237 18.8157 25.187 19.031C25.263 19.2463 25.396 19.392 25.586 19.468C25.776 19.544 26.0863 19.5947 26.517 19.62V20C25.833 19.962 24.8767 19.943 23.648 19.943C22.2927 19.943 21.292 19.962 20.646 20V19.62C21.064 19.5947 21.368 19.544 21.558 19.468C21.7607 19.392 21.8937 19.2463 21.957 19.031C22.033 18.8157 22.071 18.4673 22.071 17.986V8.562C22.071 8.08067 22.033 7.73233 21.957 7.517C21.8937 7.30167 21.7607 7.156 21.558 7.08C21.368 7.004 21.064 6.95333 20.646 6.928V6.548C21.292 6.586 22.2927 6.605 23.648 6.605C24.8767 6.605 25.833 6.586 26.517 6.548V6.928C26.0863 6.95333 25.776 7.004 25.586 7.08C25.396 7.156 25.263 7.30167 25.187 7.517C25.1237 7.73233 25.092 8.08067 25.092 8.562V12.837C25.5987 12.8117 26.061 12.6597 26.479 12.381C26.897 12.1023 27.372 11.659 27.904 11.051L29.025 9.702C29.6077 9.03067 29.899 8.44167 29.899 7.935C29.899 7.631 29.7723 7.39033 29.519 7.213C29.2783 7.03567 28.9363 6.93433 28.493 6.909V6.548C29.4177 6.586 30.355 6.605 31.305 6.605C32.0397 6.605 32.635 6.586 33.091 6.548V6.909C32.0777 7.14967 31.1593 7.75767 30.336 8.733L27.961 11.564L32.388 18.461ZM38.6246 9.911C40.0813 9.911 41.2213 10.329 42.0446 11.165C42.8679 11.9883 43.2796 13.2993 43.2796 15.098C43.2796 16.8967 42.8679 18.2077 42.0446 19.031C41.2213 19.8543 40.0813 20.266 38.6246 20.266C37.1806 20.266 36.0406 19.8543 35.2046 19.031C34.3813 18.2077 33.9696 16.8967 33.9696 15.098C33.9696 13.2993 34.3813 11.9883 35.2046 11.165C36.0406 10.329 37.1806 9.911 38.6246 9.911ZM38.6246 10.291C38.0799 10.291 37.6429 10.69 37.3136 11.488C36.9969 12.2733 36.8386 13.4767 36.8386 15.098C36.8386 16.7193 36.9969 17.9227 37.3136 18.708C37.6429 19.4933 38.0799 19.886 38.6246 19.886C39.1819 19.886 39.6189 19.4997 39.9356 18.727C40.2523 17.9417 40.4106 16.732 40.4106 15.098C40.4106 13.464 40.2459 12.2543 39.9166 11.469C39.5999 10.6837 39.1693 10.291 38.6246 10.291ZM51.5338 9.911C52.4964 9.911 53.1931 10.158 53.6238 10.652C53.8391 10.8927 53.9911 11.203 54.0798 11.583C54.1684 11.963 54.2128 12.476 54.2128 13.122V18.233C54.2128 18.7523 54.3014 19.1133 54.4788 19.316C54.6688 19.506 54.9854 19.601 55.4288 19.601V20C54.1621 19.9493 53.3261 19.924 52.9208 19.924C52.5408 19.924 51.7174 19.9493 50.4508 20V19.601C50.8308 19.601 51.0968 19.506 51.2488 19.316C51.4008 19.1133 51.4768 18.7523 51.4768 18.233V12.324C51.4768 11.8047 51.3881 11.412 51.2108 11.146C51.0461 10.88 50.7421 10.747 50.2988 10.747C49.7794 10.747 49.3361 10.9623 48.9688 11.393C48.6014 11.811 48.4178 12.3303 48.4178 12.951V18.233C48.4178 18.7523 48.4938 19.1133 48.6458 19.316C48.7978 19.506 49.0638 19.601 49.4438 19.601V20C48.2784 19.9493 47.4931 19.924 47.0878 19.924C46.7078 19.924 45.8338 19.9493 44.4658 20V19.601C44.9218 19.601 45.2384 19.506 45.4158 19.316C45.5931 19.1133 45.6818 18.7523 45.6818 18.233V12.248C45.6818 11.6653 45.5931 11.241 45.4158 10.975C45.2384 10.709 44.9218 10.576 44.4658 10.576V10.177C44.8711 10.215 45.2638 10.234 45.6438 10.234C46.7711 10.234 47.6958 10.1453 48.4178 9.968V11.678C48.9878 10.5 50.0264 9.911 51.5338 9.911ZM63.6466 10.234C64.2926 10.234 64.7802 10.215 65.1096 10.177V10.557C64.8436 10.633 64.6029 10.7977 64.3876 11.051C64.1849 11.2917 63.9886 11.6717 63.7986 12.191L61.0246 20.038C60.8852 20.0253 60.6762 20.019 60.3976 20.019C60.1316 20.019 59.9289 20.0253 59.7896 20.038L56.4076 11.64C56.2302 11.2093 56.0466 10.9243 55.8566 10.785C55.6792 10.6457 55.4956 10.576 55.3056 10.576V10.177C56.1922 10.2403 57.0916 10.272 58.0036 10.272C58.8016 10.272 59.6249 10.2403 60.4736 10.177V10.576C60.0429 10.576 59.7326 10.6077 59.5426 10.671C59.3652 10.7217 59.2766 10.8737 59.2766 11.127C59.2766 11.2283 59.3082 11.3867 59.3716 11.602L61.5376 17.359L62.9056 13.597C63.1082 13.0017 63.2096 12.4887 63.2096 12.058C63.2096 11.1333 62.7472 10.633 61.8226 10.557V10.177C62.4052 10.215 63.0132 10.234 63.6466 10.234ZM70.8887 18.708C71.9273 18.708 72.7633 18.2013 73.3967 17.188L73.7387 17.302C73.4853 18.1253 73.0293 18.8283 72.3707 19.411C71.7247 19.981 70.914 20.266 69.9387 20.266C68.596 20.266 67.5257 19.8417 66.7277 18.993C65.9423 18.1317 65.5497 16.865 65.5497 15.193C65.5497 13.483 65.974 12.1783 66.8227 11.279C67.6713 10.367 68.7987 9.911 70.2047 9.911C72.586 9.911 73.7767 11.317 73.7767 14.129H68.4377C68.425 14.319 68.4187 14.6167 68.4187 15.022C68.4187 15.858 68.5327 16.5547 68.7607 17.112C69.0013 17.6693 69.3053 18.0747 69.6727 18.328C70.0527 18.5813 70.458 18.708 70.8887 18.708ZM70.0907 10.31C69.6347 10.31 69.2547 10.595 68.9507 11.165C68.6593 11.7223 68.4757 12.59 68.3997 13.768H71.3827C71.408 12.7673 71.3067 11.944 71.0787 11.298C70.8633 10.6393 70.534 10.31 70.0907 10.31ZM81.3016 9.911C81.8716 9.911 82.3022 10.082 82.5936 10.424C82.8849 10.766 83.0306 11.1777 83.0306 11.659C83.0306 12.1277 82.8912 12.514 82.6126 12.818C82.3466 13.1093 81.9919 13.255 81.5486 13.255C81.1179 13.255 80.7759 13.1473 80.5226 12.932C80.2692 12.704 80.1426 12.4063 80.1426 12.039C80.1426 11.431 80.4212 10.937 80.9786 10.557C80.9279 10.5443 80.8519 10.538 80.7506 10.538C80.6239 10.538 80.5226 10.5507 80.4466 10.576C79.9652 10.652 79.5536 10.9433 79.2116 11.45C78.8822 11.9567 78.7176 12.476 78.7176 13.008V18.043C78.7176 18.6257 78.8569 19.031 79.1356 19.259C79.4269 19.487 79.8829 19.601 80.5036 19.601V20C80.3262 20 80.1806 19.9937 80.0666 19.981C78.7746 19.943 77.9132 19.924 77.4826 19.924C77.1406 19.924 76.3616 19.943 75.1456 19.981C75.0442 19.9937 74.9176 20 74.7656 20V19.601C75.2216 19.601 75.5382 19.506 75.7156 19.316C75.8929 19.1133 75.9816 18.7523 75.9816 18.233V12.248C75.9816 11.6653 75.8929 11.241 75.7156 10.975C75.5382 10.709 75.2216 10.576 74.7656 10.576V10.177C75.1709 10.215 75.5636 10.234 75.9436 10.234C77.0709 10.234 77.9956 10.1453 78.7176 9.968V11.735C78.9582 11.1903 79.3066 10.7533 79.7626 10.424C80.2186 10.082 80.7316 9.911 81.3016 9.911ZM87.4917 10.177H89.7337V10.557H87.4917V18.233C87.4917 18.613 87.555 18.8853 87.6817 19.05C87.821 19.202 88.0364 19.278 88.3277 19.278C88.8724 19.278 89.303 18.898 89.6197 18.138L89.9427 18.309C89.4614 19.6137 88.5937 20.266 87.3397 20.266C86.5037 20.266 85.8704 20.0507 85.4397 19.62C85.1737 19.354 84.99 19.0247 84.8887 18.632C84.8 18.2267 84.7557 17.6757 84.7557 16.979V10.557H83.1597V10.177H84.7557V7.669C85.807 7.669 86.719 7.46633 87.4917 7.061V10.177ZM95.8262 18.708C96.8648 18.708 97.7008 18.2013 98.3342 17.188L98.6762 17.302C98.4228 18.1253 97.9668 18.8283 97.3082 19.411C96.6622 19.981 95.8515 20.266 94.8762 20.266C93.5335 20.266 92.4632 19.8417 91.6652 18.993C90.8798 18.1317 90.4872 16.865 90.4872 15.193C90.4872 13.483 90.9115 12.1783 91.7602 11.279C92.6088 10.367 93.7362 9.911 95.1422 9.911C97.5235 9.911 98.7142 11.317 98.7142 14.129H93.3752C93.3625 14.319 93.3562 14.6167 93.3562 15.022C93.3562 15.858 93.4702 16.5547 93.6982 17.112C93.9388 17.6693 94.2428 18.0747 94.6102 18.328C94.9902 18.5813 95.3955 18.708 95.8262 18.708ZM95.0282 10.31C94.5722 10.31 94.1922 10.595 93.8882 11.165C93.5968 11.7223 93.4132 12.59 93.3372 13.768H96.3202C96.3455 12.7673 96.2442 11.944 96.0162 11.298C95.8008 10.6393 95.4715 10.31 95.0282 10.31ZM106.239 9.911C106.809 9.911 107.24 10.082 107.531 10.424C107.822 10.766 107.968 11.1777 107.968 11.659C107.968 12.1277 107.829 12.514 107.55 12.818C107.284 13.1093 106.929 13.255 106.486 13.255C106.055 13.255 105.713 13.1473 105.46 12.932C105.207 12.704 105.08 12.4063 105.08 12.039C105.08 11.431 105.359 10.937 105.916 10.557C105.865 10.5443 105.789 10.538 105.688 10.538C105.561 10.538 105.46 10.5507 105.384 10.576C104.903 10.652 104.491 10.9433 104.149 11.45C103.82 11.9567 103.655 12.476 103.655 13.008V18.043C103.655 18.6257 103.794 19.031 104.073 19.259C104.364 19.487 104.82 19.601 105.441 19.601V20C105.264 20 105.118 19.9937 105.004 19.981C103.712 19.943 102.851 19.924 102.42 19.924C102.078 19.924 101.299 19.943 100.083 19.981C99.9817 19.9937 99.8551 20 99.7031 20V19.601C100.159 19.601 100.476 19.506 100.653 19.316C100.83 19.1133 100.919 18.7523 100.919 18.233V12.248C100.919 11.6653 100.83 11.241 100.653 10.975C100.476 10.709 100.159 10.576 99.7031 10.576V10.177C100.108 10.215 100.501 10.234 100.881 10.234C102.008 10.234 102.933 10.1453 103.655 9.968V11.735C103.896 11.1903 104.244 10.7533 104.7 10.424C105.156 10.082 105.669 9.911 106.239 9.911Z" fill="black"/>
</svg>
