<svg width="1920" height="10" viewBox="0 0 1920 10" fill="none" xmlns="http://www.w3.org/2000/svg">
<g clip-path="url(#clip0)">
<path d="M1920 -1190H0V10H1920V-1190Z" fill="white"/>
<path d="M120 -110H0V9.99998H120V-110Z" fill="#BEC3FC"/>
<path d="M120 -110V9.99998H0L120 -110Z" fill="#A4AAFB"/>
<path d="M240 -110H120V9.99998H240V-110Z" fill="white"/>
<path d="M180 -50H120V10H180V-50Z" fill="#FFE099"/>
<path d="M120 -50H180V10L120 -50Z" fill="#FFEFC9"/>
<path d="M240 -50H180V10H240V-50Z" fill="#9FA5FB"/>
<path d="M180 -50L240 10H180V-50Z" fill="#FFF5DD"/>
<path d="M360 -110H240V9.99998H360V-110Z" fill="#E6E8FE"/>
<path d="M360 -110H240V9.99998H360V-110Z" fill="#B7BCFC"/>
<path d="M480 -110H360V9.99998H480V-110Z" fill="#CFD2FD"/>
<path d="M480 -110H360V9.99998H480V-110Z" fill="#FFFAEE"/>
<path d="M600 -110H480V9.99998H600V-110Z" fill="#D1D4FD"/>
<path d="M600 -110H480V9.99998H600V-110Z" fill="#FFE2A0"/>
<path d="M720 -110H600V9.99998H720V-110Z" fill="white"/>
<path d="M660 -50H600V10H660V-50Z" fill="#FFE9B7"/>
<path d="M600 -50C600 -34.087 606.321 -18.8257 617.574 -7.57355C628.826 3.67863 644.087 10 660 10V-50" fill="#6A74F9"/>
<path d="M720 -50H660V10H720V-50Z" fill="#FFF4DC"/>
<path d="M660 10C675.913 10 691.174 3.67863 702.426 -7.57355C713.679 -18.8257 720 -34.087 720 -50H660" fill="#FFEDC2"/>
<path d="M840 -110H720V9.99998H840V-110Z" fill="#FFEEC8"/>
<path d="M720 -110H840V9.99998L720 -110Z" fill="#F8F8FF"/>
<path d="M960 -110H840V9.99998H960V-110Z" fill="white"/>
<path d="M900 -50H840V10H900V-50Z" fill="#656FF9"/>
<path d="M840 10C855.913 10 871.174 3.67863 882.426 -7.57355C893.679 -18.8257 900 -34.087 900 -50H840" fill="#FFF5DD"/>
<path d="M960 -50H900V10H960V-50Z" fill="#FFDF94"/>
<path d="M900 -50C900 -34.087 906.321 -18.8257 917.574 -7.57355C928.826 3.67863 944.087 10 960 10V-50" fill="#E5E6FE"/>
<path d="M1080 -110H960V9.99998H1080V-110Z" fill="white"/>
<path d="M1020 -50H960V10H1020V-50Z" fill="#FFE4A5"/>
<path d="M960 -50C967.879 -50 975.682 -48.448 982.961 -45.4328C990.241 -42.4175 996.855 -37.9978 1002.43 -32.4263C1008 -26.8548 1012.42 -20.2405 1015.43 -12.961C1018.45 -5.68142 1020 2.12072 1020 10H960" fill="#FFF0CF"/>
<path d="M1080 -50H1020V10H1080V-50Z" fill="#FFFCF6"/>
<path d="M1020 10C1020 -5.91296 1026.32 -21.1742 1037.57 -32.4263C1048.83 -43.6785 1064.09 -50 1080 -50V10" fill="#FFDF93"/>
<path d="M1200 -110H1080V9.99998H1200V-110Z" fill="#FFFAF0"/>
<path d="M1080 -110H1200V9.99998L1080 -110Z" fill="#FFFEFC"/>
<path d="M1320 -110H1200V9.99998H1320V-110Z" fill="white"/>
<path d="M1260 -50H1200V10H1260V-50Z" fill="#FFFAEE"/>
<path d="M1200 -50C1200 -34.087 1206.32 -18.8257 1217.57 -7.57355C1228.83 3.67863 1244.09 10 1260 10V-50" fill="#ACB1FC"/>
<path d="M1320 -50H1260V10H1320V-50Z" fill="#FFFEFD"/>
<path d="M1260 10C1275.91 10 1291.17 3.67863 1302.43 -7.57355C1313.68 -18.8257 1320 -34.087 1320 -50H1260" fill="#FFF4DA"/>
<path d="M1440 -110H1320V9.99998H1440V-110Z" fill="#FFE099"/>
<path d="M1320 9.99998C1351.83 9.99998 1382.35 -2.64281 1404.85 -25.1472C1427.36 -47.6515 1440 -78.174 1440 -110H1320" fill="#5963F8"/>
<path d="M1560 -110H1440V9.99998H1560V-110Z" fill="white"/>
<path d="M1500 -50H1440V10H1500V-50Z" fill="#FFDE91"/>
<path d="M1500 -50V10H1440L1500 -50Z" fill="#B0B5FC"/>
<path d="M1560 -50H1500V10H1560V-50Z" fill="#FFF5DD"/>
<path d="M1500 -50L1560 10H1500V-50Z" fill="#EEEFFE"/>
<path d="M1680 -110H1560V9.99998H1680V-110Z" fill="white"/>
<path d="M1620 -50H1560V10H1620V-50Z" fill="#C1C5FC"/>
<path d="M1590 10C1606.57 10 1620 -3.43144 1620 -20C1620 -36.5685 1606.57 -50 1590 -50C1573.43 -50 1560 -36.5685 1560 -20C1560 -3.43144 1573.43 10 1590 10Z" fill="#FFE19A"/>
<path d="M1680 -50H1620V10H1680V-50Z" fill="#E9EBFE"/>
<path d="M1680 -50H1620V10H1680V-50Z" fill="#FFE6AC"/>
<path d="M1800 -110H1680V9.99998H1800V-110Z" fill="white"/>
<path d="M1740 -50H1680V10H1740V-50Z" fill="#FFD36C"/>
<path d="M1680 -50H1740V10L1680 -50Z" fill="#FFE19B"/>
<path d="M1800 -50H1740V10H1800V-50Z" fill="white"/>
<path d="M1740 -50L1800 10H1740V-50Z" fill="#F9F9FF"/>
<path d="M1920 -110H1800V9.99998H1920V-110Z" fill="#767FF9"/>
<path d="M1920 -110H1800V9.99998H1920V-110Z" fill="#FFDD8E"/>
</g>
<defs>
<clipPath id="clip0">
<rect width="1920" height="1200" fill="white" transform="translate(0 -1190)"/>
</clipPath>
</defs>
</svg>
