<svg width="12" height="12" viewBox="0 0 12 12" fill="none" xmlns="http://www.w3.org/2000/svg">
<path d="M7 8.5H6V7.5H5V6.5H6V7.5H7V8.5ZM7 4.5H6V5.5H7V6.5H6V5.5H5V4.5H6V3.5H5V2.5H6V3.5H7V4.5ZM9.5 1.5H2.5C1.945 1.5 1.5 1.945 1.5 2.5V9.5C1.5 9.76522 1.60536 10.0196 1.79289 10.2071C1.98043 10.3946 2.23478 10.5 2.5 10.5H9.5C9.76522 10.5 10.0196 10.3946 10.2071 10.2071C10.3946 10.0196 10.5 9.76522 10.5 9.5V2.5C10.5 2.23478 10.3946 1.98043 10.2071 1.79289C10.0196 1.60536 9.76522 1.5 9.5 1.5Z" fill="#FFD063"/>
</svg>
