<?xml version="1.0" standalone="no"?>
<!DOCTYPE svg PUBLIC "-//W3C//DTD SVG 20010904//EN"
 "http://www.w3.org/TR/2001/REC-SVG-20010904/DTD/svg10.dtd">
<svg version="1.0" xmlns="http://www.w3.org/2000/svg"
 width="700.000000pt" height="700.000000pt" viewBox="0 0 700.000000 700.000000"
 preserveAspectRatio="xMidYMid meet">
<metadata>
Created by potrace 1.11, written by Peter Selinger 2001-2013
</metadata>
<g transform="translate(0.000000,700.000000) scale(0.100000,-0.100000)"
fill="#000000" stroke="none">
<path d="M3260 5865 c-366 -54 -651 -170 -928 -379 -113 -86 -311 -285 -401
-404 -273 -361 -447 -799 -513 -1292 -19 -147 -16 -529 6 -675 57 -378 192
-714 393 -978 63 -83 213 -237 294 -302 459 -369 1131 -512 1849 -394 454 75
887 259 1200 509 209 168 360 354 479 590 292 582 319 1276 70 1761 -150 293
-386 493 -709 603 -271 91 -633 138 -907 116 -533 -42 -893 -243 -1063 -593
-81 -168 -95 -236 -95 -472 0 -185 2 -207 27 -300 66 -245 181 -443 356 -606
137 -129 329 -211 457 -194 183 24 275 160 275 408 0 106 -13 172 -72 376 -76
264 -54 351 108 422 75 33 218 59 332 59 380 0 781 -241 892 -538 64 -172 39
-409 -62 -580 -47 -79 -178 -214 -267 -273 -283 -190 -717 -300 -1236 -316
-435 -13 -789 48 -1051 180 -122 62 -196 114 -282 199 -127 125 -210 276 -250
453 -22 97 -21 314 1 428 70 355 287 718 587 984 129 114 198 160 450 300 254
141 308 175 418 260 89 70 148 137 190 217 23 45 26 63 26 146 0 78 -3 102
-21 135 -25 47 -75 96 -121 120 -86 43 -262 55 -432 30z"/>
</g>
</svg>
